<?xml version="1.0" encoding="UTF-8"?>
<svg width="400" height="500" xmlns="http://www.w3.org/2000/svg">
<path d="M395.51 216.75H4.57C13.01 359.62 87.059 445.02 200 495.61c113.88-52.517 187.94-137.92 195.5-278.86z"/>
<path d="M4 4v199.84c.132 3.949.34 9.831.568 13.697h390.94c.208-3.865.392-9.75.498-13.697V4z" fill="#f00000"/>
<path d="m207.99 106.67-28.258 32.137.91 17.064-23.764 19.195-2.752 12.025-26.502 9.523-2.174 14.01-1.714 8.645-10.56 15.199-3.462 14.334-13.547 10.842-1.67 2.953-6.25 22.893-19.895 11.721c0 5.564-3.826 15.617-3.826 15.617l-14.863 15.379 300.23-.518-12.006-23.203-14.592-13.826-1.233-7.668-9.752-28.064-17.502-7-1.392-6.283-11.301-42.158-16.963-8.383-6.563-8.632-6.586-5.47-2.24-6.722-6.08-5.69-5.983-4.12-.31-1.07-2.043-19.409-11.486-6.392.369.703-.412-.404-.066-4.079z" fill="#fcdb00" stroke="#000" stroke-linecap="round" stroke-linejoin="round" stroke-width="3"/>
<g fill="none" stroke="#000">
<path d="M396 4H4v199.84c5 149.88 80.001 239.81 196 291.77 117-53.957 192-143.89 196-291.77z" stroke-width="8"/>
<g stroke-linecap="round" stroke-width="3">
<path d="M127.25 237.17c6.236-5.808 15.754-18.658 15.754-18.658l7.963-17.583 5.918-25.864 23.764-19.195-.91-17.063 28.258-32.138 15.767 23.148.264 15.974" stroke-linejoin="round"/>
<path d="M228.35 154.01c7.716 4.79 14.828 10.087 21.429 16.262l2.24 6.724 6.586 5.468 6.562 8.634 16.963 8.382 11.3 42.158 1.393 6.284 17.503 7c4.088 11.858 10.983 35.731 10.983 35.731l14.593 13.827 12.005 23.202-300.23.519 14.864-15.38 3.826-15.616 19.894-11.722 6.251-22.891s18.662-15.112 28.053-21.831M109.72 248.8l3.463-14.334 10.56-15.199 1.714-8.645 2.174-14.01 26.454-9.941" stroke-linejoin="round"/>
<path d="m223.87 133.6 11.486 6.393 2.043 19.43m-166.33 152.62 11.811-9.946 13.575-4.542 7.72-7.304 5.191-10.384m10.193.616 28.205-7.757 17.755-24.646m-51.54 10.033 36.395-11.557 28.882-24.247m-9.767-3.536-25.692 23.74m13.532-22.36-19.966 16.898m119.66-1.488 23.608 9.102m21.122 24.388 17.633 27.227m-25.743-25.707 18.566 25.125m-27.266-24.795 19.909 25.175m-72.579-21.245 22.652 27.359 1.137 9.901 6.226 7.184m25.815-.284-19.258-21.7-17.683-14.428m59.381 19.808 10.381 6.189 5.786 6.93m-177.44-28.199-28.163 19.178-11.644 13.702"/>
</g>
</g>
</svg>
