<svg width="410" height="487" xmlns="http://www.w3.org/2000/svg"><g stroke-width="1.228"><path d="M6.951 7.698v284.369c0 103.065 88.667 186.615 198.051 186.615 109.384 0 198.051-83.55 198.051-186.615V7.698z" fill="#fe0000"/><path d="M1.5 383.5v.938l383.47 365.22c64.065-18.592 119.32-58.024 157.97-110.53l-268.41-255.62z" fill="#fff" stroke="#000" stroke-width="3.127" transform="matrix(.66017 0 0 .61972 5.96 6.768)"/><g><path fill="#fff" fill-rule="evenodd" stroke="#000" stroke-linecap="square" stroke-width="3.127" d="M1.5 1.5h600v382H1.5z" transform="matrix(.66017 0 0 .61972 5.96 6.768)"/><g transform="matrix(.66017 0 0 .61972 4.078 4.886)" fill="#094" fill-rule="evenodd" stroke="#000"><ellipse transform="matrix(1.0661 -1.9472 2.7101 2.1983 -1794.7 1095.2)" cx="782.29" cy="404.52" rx="11.528" ry="10.431" stroke-linecap="square" stroke-width="1.133"/><path d="m171.08 504.94 10.612-12.774-59.489-43.87z" stroke-width="3.127"/><ellipse transform="matrix(1.0661 -1.9472 2.7101 2.1983 -1733.4 1079)" cx="782.29" cy="404.52" rx="11.528" ry="10.431" stroke-linecap="square" stroke-width="1.133"/><path d="m232.36 488.77 10.612-12.774-59.489-43.87z" stroke-width="3.127"/><ellipse transform="matrix(1.0661 -1.9472 2.7101 2.1983 -1672.5 1060.6)" cx="782.29" cy="404.52" rx="11.528" ry="10.431" stroke-linecap="square" stroke-width="1.133"/><path d="m293.3 470.33 10.612-12.774-59.489-43.87z" stroke-width="3.127"/><ellipse transform="matrix(1.0661 -1.9472 2.7101 2.1983 -1691.9 1192.5)" cx="782.29" cy="404.52" rx="11.528" ry="10.431" stroke-linecap="square" stroke-width="1.133"/><path d="m273.91 602.26 10.612-12.774-59.489-43.87z" stroke-width="3.127"/><ellipse transform="matrix(1.0661 -1.9472 2.7101 2.1983 -1629.3 1173.7)" cx="782.29" cy="404.52" rx="11.528" ry="10.431" stroke-linecap="square" stroke-width="1.133"/><path d="m336.43 583.48 10.612-12.774-59.489-43.87z" stroke-width="3.127"/><ellipse transform="matrix(1.0661 -1.9472 2.7101 2.1983 -1562.7 1157.8)" cx="782.29" cy="404.52" rx="11.528" ry="10.431" stroke-linecap="square" stroke-width="1.133"/><path d="m403.06 567.56 10.612-12.774-59.489-43.87z" stroke-width="3.127"/><ellipse transform="matrix(1.0661 -1.9472 2.7101 2.1983 -1459.9 1255.2)" cx="782.29" cy="404.52" rx="11.528" ry="10.431" stroke-linecap="square" stroke-width="1.133"/><path d="m505.89 664.88 10.612-12.774-59.489-43.87z" stroke-width="3.127"/><ellipse transform="matrix(1.0661 -1.9472 2.7101 2.1983 -1526.5 1271.1)" cx="782.29" cy="404.52" rx="11.528" ry="10.431" stroke-linecap="square" stroke-width="1.133"/><path d="m439.26 680.8 10.612-12.774-59.489-43.87z" stroke-width="3.127"/><ellipse transform="matrix(1.0661 -1.9472 2.7101 2.1983 -1589 1289.9)" cx="782.29" cy="404.52" rx="11.528" ry="10.431" stroke-linecap="square" stroke-width="1.133"/><path d="m376.74 699.59 10.612-12.774-59.489-43.87z" stroke-width="3.127"/></g><g stroke="#000" stroke-width="1.084"><path d="M813.23 288.38c1.47 11.435 1.68 22.975-.886 34.747l8.922.886c1.374-13.373 3.43-26.901-1.77-37.024z" fill="#0093dd" fill-rule="evenodd" transform="matrix(2.15077 0 0 2.01897 -1576.203 -518.31)"/><g fill="#f00000" fill-rule="evenodd" transform="matrix(2.15077 0 0 2.01897 -1576.203 -518.31)"><path d="M749.55 278.81c-3.917 9.416-1.334 8.726-.374 10.199 2.636 4.047 6.771 7.32 5.091 14.085-2.665 10.738-11.234 24.419-6.34 27.777 1.805.875 5.59 1.669 7.333-.096 3.196-3.233 11.18-14.887 11.844-19.328l4.817 2.288-.091-3.81c-1.175 1.5 14.2 9.67 19.177 4.633L785 311.722c2.152-.512 6.112-.646 7.288-2.621 0 0 9.186 13.84 14.51 17.072 2.89 1.754 3.125-1.165 5.823-2.439 3.589-1.69 8.398-2.168 10.061 3.01-1.93-.76-3.623-1.536-6.983-1.273 2.554-.006 6.295 1.314 6.46 7.632-1.389-1.313-4.334-3.796-6.102-3.672 2.644 1.223 4.313 4.225 2.646 7.324-.583-.976-1.6-2.958-3.007-3.02.439-6.745-.54-11.399-.773-10.887-.132.293 1.287 4.152.745 10.864-2.14.13-5.534-1.356-6.95.754-1.402 1.125-3.096 2.2-4.542 1.372-8.279-4.735-16.58-11.622-21.647-18.934 0 0-1.393 2.379-4.176 5.183-2.361 2.379-4.428 4.59-5.458 7.562 3.97.91 7.701-.73 14.42.243 5.549.803 11.822 5.007 11.404 12.928-.213 4.045-9.954 7.75-1.19 11.34 9.023 5.635 11.26.815 12.929.123 3.753-2.336 9.379-2.537 10.274 2.47-3.536-1.042-4.901-.437-6.206.256 3.94 2.151 4.536 3.985 4.965 6.39-5.777-1.116-7.91-1.613-7.61-1.333.53.493 7.444 2.96 4.034 7.4-1.378-3.78-3.995-3.173-3.976-3.396.002-1.623-.935-3.444-.057-4.272 1.739-1.642 3.012-3.588 2.644-4.789-.395-1.287-3.009-3.626-2.532-3.221 1.51 1.28 1.87 2.065 2.532 3.221.465.814-1.391 3.896-2.6 4.834-.772.599-.058 2.629-.09 4.314-4.217-.642-13.28 2.512-13.653-3.118 2.665-6.722 11.945-2.578 16.344-6.03-4.408 3.44-13.626-.694-16.485 6.351-2.585-1.26-9.13-.18-12.727-3.849-3.25-3.315-6.17-6.276-3.347-8.486 5.127-5.357.262-10.511-5.377-8.211-2.406-4.35-4.581-8.814-3.695-13.165-.88 4.35 1.303 8.814 3.714 13.165-.333 10.083-10.698 9.299-22.316 7.156-4.752.815 2.012 13.5 5.527 10.358 1.237-2.657 3.409-4.067 6.074-4.82 4.247-1.168 7.61 1.028 8.39 4.527-2.487-1.379-4.975-.993-7.462-1.316.004 0 7.78 1.71 5.656 6.758-1.862-2.3-7.226-3.438-5.682-2.953 4.634 1.441 4.223 4.064 1.393 6.597-.23-1.18.103-2.306-1.545-2.384.478-3.908.12-8.298-.482-11.143.605 2.836.961 7.246.443 11.12l-6.03-.026c-3.757-.681-6.562 4.517-9.144.6-4.474-6.787-16.428-23.557-6.78-25.717 5 1.288 10 1.952 15-.536-5.176-2.084-3.648-4.169-3.936-6.253-5.204 1.306-13.669 2.051-14.284-6.958-.534-7.817 5.814-16.741 7.853-25.895 1.155-6.089-11.908-12.065-9.284-18.926 1.621-4.24 4.102-8.186 12.196-8.17l-2.645 3.977"/><ellipse cx="766.13" cy="274.72" rx="2.815" ry="2.72"/><path d="M765.99 276.56c4.065-3.335 9.1-.377 14.012-.557 4.95-.182 5.673.845 5 6-3.851-2.5-7.088-1.314-7.527 1.514-.261 1.685.686 3.221 7.527 2.486.397 2.94.292 4.519-4 4-2.356-.285-5.557-1.684-5.557-1.684-3.832-.844-10.3 3.553-11.822-3.139l-.419-2.481c-9.251-1.408-2.075-11.946 2.786-6.139z"/></g><path d="M778.73 329.9c-2.558 2.218-3.454 5.1-4.367 7.976" fill="none" transform="matrix(2.15077 0 0 2.01897 -1576.203 -518.31)"/><g fill-rule="evenodd"><path d="M816.14 333.89c-.179 3.368-.614 7.716-1.139 11.518-2.307-1.547-5.408-1.631-8.355-1.898 1.197-3.13 1.957-7.184 4.747-10.633z" fill="#fcdb00" transform="matrix(2.15077 0 0 2.01897 -1576.203 -518.31)"/><path d="M778 284c5.438-1.113 16.608.733 13.557-6.127 3.201.56 6.337 4.942 2.443 7.127-3.64 2.042-10.35-.257-16-1zM788.53 297.91l16.467-9.91c.633-3.869-2.304-8.263 3.443-11.38.11 2.5-.285 5.177 3.557 6.38.568-2.318 3.272-3.882 4-4 1.32-.214 3.114 3.176 2 4-1.667-.087-3.333.992-5 2 1.667-1.004 3.333-2.135 5-2 1.08.03 2.42 2.766 1.063 3.569l-5.822 1.937-1.55-.973 1.31-2.533-1.625-.149.624-1.851-.624 1.725 1.624.275-1.22 2.436 1.334 1.184.024 5.346c-.498.378-.077.112-1.106.773-8.699-2.984-1.613-8.567.968-9.68-2.585 1.087-9.655 6.673-.968 9.68-5.334 4.417-14.351 12.07-20.5 14.45-1.718-3.467-10.855-3.921-3-11.28z" fill="#f00000" transform="matrix(2.15077 0 0 2.01897 -1576.203 -518.31)"/><path d="m758.21 304.97 3.4-5.367c-.23 7.701 5.808 11.82 10.267 15.278l-.01-4.464c5.811 7.679 15.128 7.317 19.473 4.195l-6.341-3.13c10.069.174 10.07-7.288 10.089-10.896-2.731 1.131-5.36 3.295-8.31 2.237 2.743-3.082 4.425-6.51 3.847-9.732-6.55 4.525-14.148 3.795-17.326-3.48-6.197-.034-8.882-.57-9.92-5.437-.667-.543-3.176-1.199-3.38-2.514-4.624 7.62-3.505 16.159-1.79 23.31zM807.09 272.24l7.91-.253.759 7.976-3.988 4.043c-4.672-2.246-4.167-7.28-4.681-11.766z" fill="#fcdb00" transform="matrix(2.15077 0 0 2.01897 -1576.203 -518.31)"/><path d="m776.47 278.56-7.968.72c.234 4.196 8.13 4.623 7.968-.72z" fill="#fff" transform="matrix(2.15077 0 0 2.01897 -1576.203 -518.31)"/><path d="m771.66 279-3.094.281c-.014.017-.049.015-.062.031.11 1.704 1.481 2.782 3.062 3.094.565-.39.938-1.032.938-1.75 0-.67-.341-1.262-.844-1.656z" transform="matrix(2.15077 0 0 2.01897 -1576.203 -518.31)"/></g></g><g fill-rule="evenodd"><g stroke-width="1.084"><path d="M841.68 290.28c-.457 11.056-.542 21.837 2.024 33.608l-7.783.127c-1.627-10.083-3.682-23.991-.506-35.127z" fill="#0093dd" stroke="#000" transform="matrix(2.15077 0 0 2.01897 -1576.203 -518.31)"/><path d="M841.66 334.14c.179 3.368-.399 7.463.127 11.265 2.307-1.547 6.8-.999 9.747-1.265-1.197-3.13-2.337-7.564-5.127-11.012z" fill="#fcdb00" stroke="#000" transform="matrix(2.15077 0 0 2.01897 -1576.203 -518.31)"/><path d="M906.78 278.81c3.917 9.416 1.334 8.726.374 10.199-2.636 4.047-6.771 7.32-5.091 14.085 2.665 10.738 11.234 24.419 6.34 27.777-1.805.875-5.59 1.669-7.333-.096l-11.276-17.166-14.563 7.395c2.36 2.378 7.173 5.674 8.204 8.645-3.97.91-7.702-.73-14.42.242-5.55.804-11.822 5.008-11.404 12.928.213 4.045 9.953 7.751 1.189 11.34-9.022 5.636-11.259.815-12.928.124-3.753-2.336-9.38-2.537-10.274 2.47 3.536-1.042 4.901-.438 6.206.256-3.94 2.15-4.536 3.985-4.965 6.39 5.777-1.116 7.91-1.613 7.61-1.333-.53.493-7.444 2.96-4.034 7.4 1.378-3.78 3.995-3.173 3.976-3.396l.103.087c4.217-.642 13.28 2.512 13.653-3.118-2.666-6.722-11.945-2.578-16.344-6.03 4.408 3.44 13.626-.694 16.485 6.351 2.585-1.26 9.13-.18 12.727-3.849 3.25-3.315 6.17-6.277 3.346-8.487-5.126-5.357 3.408-13.42 9.046-11.12h-.019c.334 10.082 7.029 12.208 18.647 10.065 4.753.815-2.012 13.5-5.527 10.358-1.237-2.657-3.409-4.067-6.073-4.82-4.247-1.168-7.611 1.028-8.39 4.527 2.487-1.379 4.974-.993 7.461-1.316-.004 0-7.78 1.71-5.655 6.758 1.862-2.3 7.226-3.438 5.682-2.953-4.635 1.441-4.224 4.064-1.393 6.597.23-1.18-.103-2.306 1.544-2.384-.477-3.908-1.015-5.256-.412-8.101-.605 2.835-.067 4.203.452 8.078l6.029-.026c3.758-.682 6.563 4.516 9.145.599 4.473-6.786 16.428-23.556 6.78-25.716-5 1.288-10 1.951-15-.537 5.176-2.084 3.647-4.168 3.936-6.252 5.203 1.305 13.669 2.05 14.284-6.959.534-7.817-5.814-16.74-7.853-25.895-1.156-6.088 11.908-12.066 9.284-18.926-1.621-4.24-4.103-8.186-12.196-8.17l2.645 3.977" stroke="#fff" transform="matrix(2.15077 0 0 2.01897 -1576.203 -518.31)"/></g><g stroke="#000" stroke-width="1.084"><path d="m849.15 273.48-7.91-.253c-.058 2.619.762 4.847-2.15 8.735l3.987 4.043c2.603-1.527 4.963-5.781 2.32-7.828 1.248-.829 3.005-1.615 3.753-4.697z" fill="#fcdb00" transform="matrix(2.15077 0 0 2.01897 -1576.203 -518.31)"/><path d="m867.23 298.3-17.898-8.3c-.633-3.868 2.304-8.262-3.443-11.38-.11 2.5.285 5.177-3.557 6.38-.568-2.318-3.272-3.882-4-4-1.32-.214-3.114 3.176-2 4 1.667-.087 3.333.992 5 2-1.667-1.004-3.333-2.135-5-2-1.08.03-2.42 2.766-1.063 3.57 1.94.923 3.881 2.275 5.822 1.936l1.55-.972-1.31-2.534 1.625-.148-.624-1.852.624 1.725-1.624.275 1.22 2.437-1.335 1.183-.023 5.346c.498.378.077.112 1.106.773 8.699-2.984 1.613-8.567-.968-9.68 2.585 1.087 9.655 6.673.968 9.68 5.334 4.417 17.124 12.517 23.272 14.898-.49-1.891-.82-3.672.044-6.196 1.108.287 2.105.536 1.902-.493-.474-2.408-.11-3.723-.288-6.649z" transform="matrix(2.15077 0 0 2.01897 -1576.203 -518.31)"/><path d="M884.94 330.41c-.658.04-1.394.526-2.517.565 1.554 1.574 2.509 3.838 2.537 6.886 1.613-2.31 2.871-5.55-.02-7.451z" fill="#f00000" transform="matrix(2.15077 0 0 2.01897 -1576.203 -518.31)"/><path d="M893.11 279.79c-.286-2.845.89-5.744 3.447-8.826-3.452-.684-7.15 1.338-8.594 3.216-.377-2.345-2.167-3.56-3.674-5-1.61 1.226-3.498 1.894-4.21 4.913-2.193-2.304-4.93-3.185-7.611-3.484 2.035 2.604 3.261 5.748 3.895 9.287z" fill="#fcdb00" transform="matrix(2.15077 0 0 2.01897 -1576.203 -518.31)"/><path d="M867.56 314.37c1.577-2.26 2.064-1.665 2.305-3.446-2.292-1.107-2.52-3.084-2.888-3.703 0 0-12.115 15.715-17.44 18.945-2.89 1.754-3.125-1.165-5.823-2.438-3.588-1.692-8.397-2.169-10.06 3.01 1.93-.76 3.623-1.537 6.983-1.273-2.554-.006-6.296 1.313-6.46 7.63 1.389-1.311 4.334-3.795 6.102-3.67-2.644 1.222-4.313 4.224-2.646 7.324.583-.977 1.6-2.959 3.006-3.021l.028-.022c2.141.129 5.535-1.357 6.95.754 1.403 1.125 3.096 2.2 4.542 1.372 8.28-4.736 19.151-11.259 24.218-18.571" transform="matrix(2.15077 0 0 2.01897 -1576.203 -518.31)"/></g><path d="M874 299.63c-3.663-.337-6.245-1.62-8-3.626.243 3.333-.245 6.666 2 10-2.187 1.308-4.028.195-6 0 1.325 2.912 2.17 5.999 6 8l-2 3c3.835 1.177 8.018.411 11.626 0 .135 1.31-1.216 2.396-2.626 4 7.16.675 12.187-4.199 17-9.626l2 4.626c1.855-4.191 2.563-10.77 3-15.197-9.674.748-20.216 4.505-23-1.177z" stroke="#fff" stroke-width="1.563" transform="matrix(2.15077 0 0 2.01897 -1576.203 -518.31)"/><g stroke="#000" stroke-width="1.084"><path d="M881.4 294c-2.196 2.82-7.535 1.119-8 5-.07 2.612 2.723 4.043 3.438 2.757.399-.716.525-1.569.696-2.4-.316.702-.82 1.263-.696 2.295.225 1.86 2.774 2.116 3.55.703.697-1.267.831-2.635 1.012-3.952-.67.852-.81 3.55-1.011 3.952-.69 1.373 3.564 2.738 3.97 1.047.216-.895-.393-1.927-.122-3.357.41 1.127.413 2.254.107 3.382.008 1.098 3.696.763 2.982-.721.274-1.38-.016-2.619-.194-3.885-.023 1.332-.327 2.663.194 3.995.362.924 2.124 1.13 3.671.184-.58-1.075-.656-2.15-.402-3.224.342 1.075.535 2.15.402 3.224 1.469.975 3.092.052 3-1-.723-1.277-.84-2.858-1.118-4.358.461 1.453 1.1 2.905 1.118 4.358 1.41 1.85 4.492-.086 4.403-.776-1.485-.686-2.297-1.797-2.403-3.224.725 1.135 1.293 2.43 2.403 3.224 2.91-1.067 1.516-3.359.597-4.224-1.387-1.306-4.918-2.487-5.163-3.85-4.584-.002-11.118.743-12.434.85z" fill="#fcdb00" transform="matrix(2.15077 0 0 2.01897 -1576.203 -518.31)"/><path d="M892.23 280.23c-4.065-3.335-11.606-.377-16.517-.557-4.95-.182-5.673.845-5 6 3.851-2.5 9.056-1.222 9.137 1.559.125 4.272-7.03 6.383-6.992 2.56a35.59 35.59 0 0 1-1.34-.12c-.397 2.941-.292 4.52 4 4 2.356-.284 2.376.987 7.078.106 3.855-.722 10.3 3.553 11.822-3.138l.598-4.271c9.251-1.408 2.075-11.946-2.786-6.139z" transform="matrix(2.15077 0 0 2.01897 -1576.203 -518.31)"/><path d="M878 281h2c.523.781.91 1.671 2 2v-2h4c.145 4.2-7.68 5.336-8 0z" fill="#fff" transform="matrix(2.15077 0 0 2.01897 -1576.203 -518.31)"/><path d="M879 289c-8.214-.964-16.974-1.468-15-11-5.134 3.193-5.467 7.041-3 10 4.23 5.074 9.756-.734 18 1z" fill="#f00000" transform="matrix(2.15077 0 0 2.01897 -1576.203 -518.31)"/></g></g><g fill="none"><path d="M834.46 327.46c2.223-.705.736-.527 3.121-.984-1.615.332-.382 4.418-1.252 6.163" stroke="#fff" stroke-width="1.084" transform="matrix(2.15077 0 0 2.01897 -1576.203 -518.31)"/><path d="M842.54 296.72c6.971-2.952 3.3-6.403.463-8.805" stroke="#fff" stroke-width="1.563" transform="matrix(2.15077 0 0 2.01897 -1576.203 -518.31)"/><path d="M834.57 284.91c1.602-.394 5.415 1.559 5.626 4.447" stroke="#feffff" stroke-width="1.563" transform="matrix(2.15077 0 0 2.01897 -1576.203 -518.31)"/></g></g></g><path d="M6.951 7.698v273.55c0 109.38 88.67 198.05 198.05 198.05s198.05-88.669 198.05-198.05V7.698z" fill="none" stroke="#000" stroke-width="10"/></svg>