<?xml version="1.0" encoding="iso-8859-1"?>
<!-- Generator: Adobe Illustrator 10.0, SVG Export Plug-In . SVG Version: 3.0.0 Build 77)  -->
<!DOCTYPE svg PUBLIC "-//W3C//DTD SVG 1.0//EN"    "http://www.w3.org/TR/2001/REC-SVG-20010904/DTD/svg10.dtd" [
	<!ENTITY ns_flows "http://ns.adobe.com/Flows/1.0/">
	<!ENTITY ns_svg "http://www.w3.org/2000/svg">
	<!ENTITY ns_xlink "http://www.w3.org/1999/xlink">
]>
<svg  xmlns="&ns_svg;" xmlns:xlink="&ns_xlink;" xmlns:a="http://ns.adobe.com/AdobeSVGViewerExtensions/3.0/"
	 width="283.465" height="318.898" viewBox="0 0 283.465 318.898"
	 style="overflow:visible;enable-background:new 0 0 283.465 318.898" xml:space="preserve">
	<g id="Wappenrand">
	</g>
	<g id="CMYK_Wappen">
		<path style="fill-rule:evenodd;clip-rule:evenodd;" d="M0,0h283.465v177.166c0,78.278-63.454,141.733-141.732,141.733
			C63.455,318.898,0,255.443,0,177.166V0z"/>
		<g>
			<path style="fill-rule:evenodd;clip-rule:evenodd;fill:#FFFFFF;" d="M207.809,295.381c0.834-4.746,1.556-9.882,1.456-11.743
				c-0.081-1.52-0.698-3.157-0.698-4.646c0-1.048,0.95-1.099,1.496-1.535c0.27-0.216,1.73-1.6,1.854-1.795
				c1.07-1.702,1.796-5.203,1.954-7.138c0.012-0.146,0.054-0.356,0.04-0.498c-0.322-3.328-1.772-5.969-4.167-8.234
				c-2.989-2.829-6.659-5.483-8.732-9.112c-2.315-4.052-2.37-8.989-3.549-13.398c-0.259-0.968-0.771-1.971-1.137-2.911
				c-0.221-0.566-0.407-1.248-0.698-1.774c-0.282-0.513-0.854-1.067-1.242-1.516l-0.811-1.017c-1.601-1.192-4.237-2.393-6.181-2.852
				c-1.423-0.336-2.96-0.454-4.406-0.697l-7.078-1.196c-0.839-0.142-1.848-0.196-2.651-0.439c-1.152-0.349-2.531-1.285-3.615-1.861
				c-1.848-0.981-4.111-2.405-5.557-3.961c-0.559-0.602-1.037-1.521-1.495-2.213c-0.485-0.735-1.078-1.461-1.495-2.233
				c-0.31-0.573-0.507-1.323-0.731-1.94c-1.885-5.186-2.18-10.537-2.419-16.004c0.5-0.342,1.009-0.675,1.495-1.037
				c4.311,3.803,7.605,6.819,13.678,6.819c1.398,0,3.046-0.096,4.366-0.638c0.887-0.365,1.459-1.021,2.232-1.496
				c0.054-0.033,1.479-0.426,1.695-0.499l0.458-0.798c-0.427-0.582-1.415-1.997-1.854-2.492c-0.491-0.553-1.085-0.898-1.396-1.595
				c0.825,0,1.784,0.122,2.592,0.04c0.991-0.101,4.595-0.883,5.542-1.336c1.374-0.657,2.665-1.703,3.709-2.778
				c0.628-0.647,1.466-1.42,1.874-2.246c0.25-0.111,0.501-0.22,0.737-0.359c-0.013-0.302-0.008-0.705,0.06-0.997
				c-2.983-2.121-4.441-3.437-8.147-4.446c-0.444-0.122-0.976-0.381-1.422-0.439c-1.549-0.201-3.684,0.053-5.284,0.1
				c0.18-0.68,0.89-1.297,1.336-1.795c3.047,0.943,6.594,1.8,9.77,1.057c1.844-0.431,3.966-2.438,5.124-3.828
				c0.715-0.857,2.12-2.503,2.452-3.549c0.635-1.994,1.517-4.094,1.795-6.181c-1.184-0.11-2.408-0.352-3.589-0.398
				c-0.957-0.039-1.977,0.072-2.938,0.106c-0.474,0.017-1.027-0.045-1.489,0.033c-1.827,0.31-4.789,1.637-6.141,2.851
				c-1.12,1.007-1.971,2.369-3.13,3.33c-0.226-0.795-0.342-1.653-0.599-2.433c-0.432-1.313-1.074-2.475-1.355-3.848
				c-0.219,0-0.42-0.017-0.638-0.04c-2.067,1.069-5.296,2.323-7.118,3.529c-1.585,1.049-3.513,4.155-4.545,5.842
				c0,0.236-0.018,0.463-0.04,0.698c-0.245-0.219-0.575-0.431-0.857-0.598c-1.912,0-3.838,0.702-5.622,1.396
				c0.486-2.689,0.508-6.036-0.3-8.673c-0.3-0.981-1.505-2.563-2.093-3.389l-0.021-6.307c0-1.685-0.317-4.728,1.217-5.995
				c0.429-0.354,1.054-0.667,1.548-0.938c0.637-0.347,1.441-0.884,2.141-1.057c0.705-0.174,12.651-3.232,13.139-3.09
				c0.917,1.64,1.731,3.474,2.95,4.925c0.364,0.433,2.534,2.542,3.091,2.851c1.582,0.879,3.783,1.732,5.582,1.994
				c0.747,0.108,1.792-0.065,2.565-0.093c0.589-0.021,1.287,0.029,1.861-0.067c0.726-0.121,1.43-0.547,2.153-0.697
				c1.215-0.252,2.772-0.262,4.027-0.339c-0.02-0.194,0.003-0.412,0.06-0.599c-0.729-1.054-0.958-2.539-1.556-3.688
				c-1.388-2.669-4.663-5.026-7.316-6.28c-1.26-0.596-2.696-0.913-3.988-1.456v-0.299c1.444-0.588,2.875-1.229,4.327-1.794
				c1.556,1.355,2.721,3.006,4.146,4.486c1.328,1.378,4.768,3.437,6.68,3.688c0.86,0.114,1.793,0.07,2.665,0.093
				c0.864,0.023,1.908,0.083,2.758-0.093c1.243-0.258,2.844-0.854,4.027-1.335c0.882-0.359,1.871-0.815,2.691-1.296
				c1.782-1.045,1.756-1.605,4.047-1.794c0.013-0.234,0.002-0.573-0.06-0.797c-0.214-0.15-0.636-0.306-0.797-0.458
				c-0.15-0.142-0.271-0.413-0.419-0.578c-0.678-0.758-1.516-1.487-2.319-2.101c-5.389-4.113-6.716-3.761-12.854-5.297v-0.299
				c1.346-0.791,2.681-1.639,3.987-2.492h0.459c1.42,1.59,4.999,4.548,7.058,5.283c0.399,0.143,0.951,0.156,1.376,0.239
				c2.624,0.514,4.028,0.591,6.659,0.04c0.405-0.085,0.913-0.129,1.296-0.279c2.134-0.838,3.958-2.142,5.809-3.469
				c1.545-1.108,2.727-1.777,4.061-3.11c-0.026-0.345-0.086-0.693-0.1-1.037c-1.302-0.435-2.676-0.783-3.947-1.296
				c-1.01-0.407-1.973-0.976-2.991-1.355c-3.428-1.278-7.34-1.542-10.966-1.196c-0.386,0.037-0.803,0.233-1.196,0.299
				c0.021-0.147,0.055-0.297,0.1-0.438c2.013-1.62,4.053-3.267,5.981-4.984h0.658c1.049,0.787,2.118,1.825,3.229,2.492
				c0.566,0.34,1.357,0.575,1.974,0.837c4.292,1.824,9.135,1.12,13.18-1.037c0.621-0.332,1.212-0.835,1.794-1.236
				c0.548-0.377,1.383-0.788,1.834-1.256c0.584-0.605,3.349-4.422,4.048-4.686c-0.029-0.245-0.033-0.5-0.1-0.738
				c-1.473-0.443-2.934-0.931-4.387-1.436c-0.833-0.29-1.737-0.73-2.592-0.917c-1.881-0.413-4.507-0.541-6.42-0.498
				c-1.441,0.032-3.217,0.562-4.646,0.857c-0.059,0.012-0.562-0.079-0.638-0.1c1.31-1.547,2.68-3.13,4.087-4.586
				c1.136,0.361,2.374,0.969,3.529,1.196c1.644,0.323,4.544,0.686,6.22,0.797c1.226,0.082,4.71-0.511,5.742-0.997
				c0.666-0.313,1.331-0.795,1.968-1.177c0.681-0.408,1.594-0.94,2.159-1.476c1.025-0.969,1.939-2.103,2.911-3.13
				c1.201-1.269,2.464-2.483,3.729-3.688c-0.013-0.184,0.005-0.378,0.04-0.559c-1.075-0.208-2.064-1.044-3.091-1.436
				c-0.547-0.208-1.149-0.356-1.714-0.518c-1.499-0.428-2.88-0.479-4.427-0.479c-4.645,0-5.994,0.672-10.108,2.393
				c0.005-0.151-0.037-0.322-0.1-0.458c0.24-0.454,0.438-0.932,0.658-1.396c1.74-0.898,5.313-3.263,6.619-4.686
				c2.741-2.985,4.438-9.45,3.748-13.339c-0.348-1.962-1.356-3.779-1.993-5.643c-0.224-0.652-0.315-1.452-0.459-2.133
				c-0.555-0.003-5.563,3.433-7.018,5.084c-1.345,1.526-4.616,7.165-4.825,9.012c-0.076,0.671,0,1.445,0,2.127
				c0,3.141,0.116,3.918,0.977,6.845c0.18,0.608,0.688,0.85,1.156,1.196v0.339c-0.794,0.887-1.052,1.458-1.635,2.492
				c-0.116,0.013-0.247-0.008-0.358-0.04c0-2.68,0.823-5.899-0.642-9.172c-0.99-2.211-3.115-4.209-3.785-4.924
				c-0.888-0.949-1.883,0.98-2.851,1.84c-3.967,3.526-4.7,6.554-4.984,11.757c-0.62-0.745-1.092-1.296-1.834-1.854
				c-0.031-0.266-0.042-0.536-0.1-0.798h-0.599c-1.156,1.65-1.368,1.573-2.891,2.891c-0.125-0.24,0.625-0.968,0.737-1.097
				c-0.012-0.235-0.001-0.573,0.06-0.797l-0.458-0.14c-0.276,0.05-0.524,0.181-0.798,0.239c-0.577-0.312-2.174-0.283-2.811-0.319
				c-4.643-0.26-7.239-0.096-11.484,1.875c0.396-1.138,1.347-2.79,2.253-3.489c2.438,0.502,5.54,1.222,8.015,0.897
				c0.614-0.08,1.413-0.474,2.014-0.678c4.41-1.499,7.388-3.774,9.451-8.015c0.749-1.542,1.157-4.527,2.232-5.603
				c-0.513-0.714-2.07-0.534-2.852-0.559c-5.989-0.187-7.84-0.107-13.039,3.091c0.268-1.334,1.081-2.659,1.636-3.888
				c1.601-0.194,3.245,0.034,4.845-0.14c1.684-0.183,5.631-1.736,7.018-2.851c2.245-1.805,4.624-4.452,5.742-7.178
				c0.209-0.51,0.299-1.198,0.445-1.741c0.268-0.992,1.189-2.727,1.189-3.442c-0.158-0.116-0.307-0.254-0.438-0.399
				c-2.499,0.082-7.726,0.192-9.829,1.156c-1.472,0.674-3.021,1.704-4.426,2.532c-0.131-0.968,0.433-3.588,0.598-4.526
				c1.509-1.38,2.565-2.115,3.788-3.888c0.755-1.094,1.288-2.435,1.734-3.676c0.314-0.873,0.78-1.948,0.957-2.844
				c0.794-4.034,0.206-8.335-1.595-12.022c-0.854-1.748-2.367-3.019-3.15-4.785h-0.538c-1.675,1.498-3.521,2.381-4.984,4.187
				c-0.598,0.737-1.405,1.863-1.854,2.691c-0.033,0.063-1.306,3.989-1.336,4.147c-0.32,1.702-0.074,3.603,0.027,5.316
				c0.098,1.664,0.174,3.378,0.811,4.951c0.728,1.799,2.902,5.435,3.09,5.523c-0.024,0.727-0.367,4.097-0.538,4.725
				c-0.409-1.692-0.659-3.895-1.396-5.482c-0.853-1.84-2.593-4.598-3.888-6.121c-1.092-1.283-3.504-2.65-4.188-4.327h-0.498
				c-0.44,0.843-1.002,1.673-1.396,2.532c-0.178,0.387-0.154,0.905-0.339,1.296c-0.45,0.951-1.071,1.836-1.436,2.832
				c-0.937,2.554-0.311,6.542,0.04,9.171c-0.512-0.114-2.649-1.634-2.951-1.994c-0.219,0.015-0.427-0.055-0.638-0.1
				c-0.597,1.709-1.487,3.357-1.994,5.084c-0.991,3.382-0.713,6.804-0.199,10.228c-0.424-0.277-0.823-0.594-1.256-0.857
				c-0.106-0.256-0.235-0.512-0.399-0.738c-0.456-0.071-0.739-0.093-1.096,0.14c0.029-0.301,0.076-1.725,0.358-1.994
				c-1.565-0.783-6.258-0.2-7.935,0.1c-1.091,0.195-2.296,0.696-3.37,1.017c-0.354,0.106-0.831,0.172-1.156,0.339
				c-1.65,0.847-3.378,2.158-4.825,3.329c-0.182-1.067,0.786-4.93,1.297-6.221c1.479-0.212,3.587,0.216,5.123,0.239
				c4.465,0.069,7.92-1.943,10.468-5.582c0.31-0.443,0.535-1.013,0.804-1.489c1.9-3.361,2.082-4.962,2.506-8.912
				c0.008-0.078,0.075-0.841,0.18-0.904c0-0.252,0.012-0.487,0.039-0.738c-1.981,0.703-4.045,0.992-6.08,1.496
				c-3.573,0.884-8.083,3.537-10.508,6.22c0.283-2.196,1.275-4.481,1.935-6.579c1.609,0.132,3.646-0.289,5.184-0.638
				c1.389-0.316,5.516-2.539,6.539-3.489c0.573-0.533,1.114-1.177,1.655-1.748c0.368-0.389,0.87-0.813,1.176-1.243
				c0.264-0.369,0.477-1.088,0.672-1.521c1.17-2.611,1.811-4.041,2.08-6.912c0.096-1.019-0.247-2.693-0.061-3.589
				c0.11-0.524,0.391-0.748,0.359-1.336c-0.099-0.068-0.187-0.164-0.259-0.259c-1.501,0.363-2.931,0.408-4.427,0.658
				c-1.063,0.177-2.111,0.658-3.057,1.143c-3.685,1.892-4.4,3.433-7.171,6.074c0-0.811,0.238-3.108,0.598-3.628
				c0.786-1.137,2.142-1.911,2.951-2.991c0.935-1.247,2.87-4.162,3.39-5.782c0.556-1.733,0.566-5.622,0.199-7.317
				c-0.575-2.651-3.121-8.144-4.287-10.626c-0.296-0.056-0.604-0.073-0.896-0.14c-0.361,0.452-0.73,1.124-1.156,1.496
				c-0.907,0.79-2.526,1.889-3.29,2.931c-0.865,1.18-1.593,2.648-2.206,3.975c-1.721,3.711-2.381,6.563-1.402,10.6
				c0.25,1.033,0.532,2.248,0.977,3.21c0.784,1.7,2.006,3.306,2.931,4.945c0,1.437,0.102,2.659-0.339,4.027
				c-1.919-7.801-3.327-9.182-9.211-14.555c-0.254,0.024-0.506,0.083-0.758,0.1c-0.391,1.092-0.828,2.354-1.336,3.39
				c-0.424,0.863-1.075,1.68-1.455,2.552c-0.871,2-0.979,6.08-0.459,8.214c0.205,0.842,0.637,1.703,0.957,2.512
				c0.154,0.391,0.288,0.923,0.498,1.276c0.595,0.996,1.448,1.963,2.154,2.891c-0.916-0.754-6.326-5.573-7.477-5.822
				c-0.252-0.054-0.782,0.08-0.997,0.239c-0.831,1.923-1.646,4.092-1.854,6.181c-0.399,3.999,1.641,10.607,4.686,13.358
				c0.768,0.695,3.13,2.548,4.047,2.991c0.56,0.27,1.376,0.194,1.934,0.499c0.607,0.331,1.011,0.718,1.655,0.997
				c0.189,0.479,0.393,0.983,0.638,1.436c-0.814,2.42-1.601,4.85-2.393,7.277h-0.299c-0.592-1.678-1.182-3.93-1.934-5.482
				c-0.413-0.854-2.381-3.875-2.99-4.626c-0.861-1.06-2.547-1.985-3.29-3.09c-0.57-0.849-0.925-1.677-1.595-2.492h-0.499
				c-0.827,1.187-1.638,2.392-2.452,3.589c0.498-2.803,0.932-5.624,1.396-8.434c-0.176-0.009-0.87-0.149-0.937-0.14
				c-1.866,0.254-9.705,3.353-11.165,4.486c-1.405,1.089-2.407,2.639-3.39,4.087c-0.164-2.378-0.406-4.759-0.538-7.138
				c2.952-0.403,6.703-1.498,9.111-3.27c0.884-0.65,1.69-1.666,2.512-2.419c1.535-1.407,3.249-3.426,3.868-5.457
				c0.382-1.252,0.538-2.658,0.791-3.948c0.273-1.396,0.704-2.771,0.704-4.187c-0.905-0.409-1.88-0.439-2.864-0.439
				c-0.598,0-1.295-0.073-1.881,0c-2.75,0.344-7.458,3.448-9.351,5.423c-1.399,1.46-2.175,3.276-3.19,4.984
				c-0.08-3.205-0.32-6.406-0.398-9.61c1.313,0.025,2.982,0.104,4.267-0.1c2.407-0.38,6.133-2.511,7.836-4.187
				c1.691-1.666,4.124-5.861,4.585-8.234c0.412-2.124,0.614-4.286,1.037-6.42c-0.645,0.013-1.303-0.121-1.934-0.1
				c-1.775,0.059-3.347,0.458-5.024,0.977c-5.934,1.834-8.379,4.297-11.125,9.79c-0.273-0.799-0.438-2.471-0.04-3.29
				c0.47-0.969,1.548-1.824,2.133-2.752c0.983-1.559,1.957-3.752,2.492-5.522c0.51-1.685,0.646-4.806,0.339-6.58
				c-0.169-0.977-0.943-3.466-1.335-4.386c-0.219-0.512-0.682-1.034-0.978-1.516c-0.291-0.473-0.599-1.17-0.957-1.575
				c-0.223-0.251-0.59-0.46-0.844-0.697c-0.233-0.219-1.081-1.132-1.31-1.236h-0.997c-1.949,1.867-4.061,3.893-5.442,6.221
				c-1.991,3.354-1.773,9.254-0.04,12.72c0.948,1.897,2.341,3.661,3.589,5.363v2.692c-0.322-0.819-0.585-1.76-0.997-2.532
				c-2.13-3.994-5.984-6.538-10.108-8.115c-1.566-0.599-2.513-1.189-4.187-0.957c-0.678,1.78-1.247,3.42-1.356,5.344
				c-0.071,1.275,1.264,5.455,1.895,6.56c1.334,2.334,3.305,4.248,5.43,5.842c0.283,0.213,0.646,0.585,0.95,0.738
				c1.372,0.686,5.503,1.404,6.979,1.695c0.304,0.47,0.665,0.562,1.196,0.797c0.522,3.276,0.199,7.072,0.199,10.427
				c-2.245-4.489-5.195-10.499-10.567-11.763c-1.638-0.385-4.358-0.585-6.12-0.797c-0.382,1.474-0.922,3.227-1.097,4.725
				c-0.113,0.971,0.046,2.168,0.206,3.13c0.735,4.414,3.236,7.536,7.19,9.61c1.339,0.702,3.012,1.765,4.506,2.113
				c1.553,0.362,3.384,0.276,4.984,0.498c0.21-0.138,0.447-0.21,0.698-0.159c0.053,3.288,0.067,6.583,0.199,9.869
				c-1.737-2.896-4.342-6.253-7.517-7.676c-0.987-0.442-2.079-0.732-3.091-1.137c-1.672-0.669-1.936-1.196-3.748-1.196
				c-0.079,0.229-0.417,0.885-0.438,1.037c-0.176,1.261-0.244,3.373-0.159,4.646c0.074,1.114,0.376,2.171,0.259,3.29
				c-0.184,0.019-1.134,0.665-1.355,0.778c-0.813,0.415-1.497,0.981-2.213,1.548c-2.773,2.195-3.669,3.718-5.204,6.786
				c-0.26-0.563-1.139-2.276-1.097-2.991c2.36-1.83,3.779-2.917,5.656-5.376c0.29-0.38,0.743-0.832,0.964-1.243
				c2.246-4.191,2.537-11.773,1.295-16.289c-0.091-0.333-0.382-0.686-0.538-0.997c-1.367,0.274-2.757,0.592-4.047,1.137
				c-2.862,1.208-5.739,4.879-6.938,7.676c-0.441,1.03-0.716,2.164-1.076,3.23c-0.383-1.085-0.956-2.14-1.297-3.23
				c-0.217-0.695-0.319-1.479-0.498-2.193c1.274-1.117,2.894-2.109,4.047-3.329c0.568-0.601,1.105-1.424,1.576-2.114
				c2.937-4.307,3.305-8.273,2.432-13.219c-0.211-1.198-1.104-3.53-0.877-4.466c-0.141-0.006-0.841,0.017-0.938,0.06
				c-0.546,0.245-6.94,5.49-7.377,6.021c-1.106,1.35-1.822,3.114-2.552,4.686c-0.119-0.74-0.192-1.49-0.299-2.233
				c0.727-1.051,3.245-4.539,3.648-5.442c0.461-1.034,0.499-3.372,0.498-4.533c0.001-0.915,0.114-1.987,0.001-2.884
				c-0.309-2.427-2.511-6.588-4.247-8.414c-1.207-1.269-2.742-2.34-4.027-3.549c0.012-0.263,0.01-0.647-0.06-0.897
				c-0.121-0.066-0.235-0.15-0.34-0.239c-1.168,1.712-1.773,3.137-2.691,4.912c-0.568,1.099-1.26,2.149-1.794,3.263
				c-0.789,1.646-1.505,5.831-1.156,7.656c0.162,0.85,0.447,1.755,0.69,2.592c0.178,0.605,0.372,1.405,0.665,1.954
				c1.371,2.565,5.632,6.022,6.081,6.181c0.111,0.963,0.196,1.932,0.339,2.891c-1.07-1.785-2.201-2.812-3.795-4.12
				c-0.662-0.544-1.319-1.253-2.026-1.722c-2.459-1.625-5.987-2.477-8.912-2.233c0.227,5.264,0.946,12.043,4.665,16.09
				c0.685,0.745,1.785,1.344,2.625,1.887c0.87,0.563,2.239,1.424,3.257,1.701c1.05,0.287,2.248,0.41,3.329,0.579
				c1.311,0.204,2.731,0.618,4.048,0.618c0.66,2.433,1.645,4.871,2.192,7.317c0.021,0.096-0.053,0.37-0.1,0.458
				c-2.974-3.54-6.168-7.988-11.005-8.932c-1.358-0.265-2.767-0.089-4.088-0.339c-1.033-0.196-1.148-0.587-2.353-0.499l-0.239,0.359
				c0.373,2.237,0.597,4.625,1.137,6.819c0.535,2.173,2.147,5.168,3.596,6.806c0.334,0.378,0.706,0.965,1.09,1.269
				c0.73,0.58,3.304,1.761,4.273,2.247c3.1,1.55,7.146,1.879,10.44,0.685c0.989,3.209,2.12,6.399,3.229,9.57
				c0.021,0.063-0.057,0.25-0.1,0.299c-2.896-3.024-4.88-5.301-8.713-7.178c-0.69-0.338-1.557-0.802-2.293-0.997
				c-2.027-0.536-4.293-0.71-6.38-0.903c-0.572-0.053-0.964-0.355-1.555-0.393c-0.062,0.172-0.146,0.342-0.239,0.499
				c0.053,0.71,0.035,1.496,0.14,2.193c0.083,0.557,0.373,1.213,0.538,1.762c0.358,1.193,0.555,2.378,0.658,3.622
				c-0.223-0.691-0.555-1.365-0.838-2.034c-0.199-0.006-0.401-0.026-0.598-0.06c-0.097,0.237-0.284,0.429-0.399,0.658
				c-1.299,0.428-3.142,3.075-3.987,4.227c0.348-1.119,0.932-2.393,1.137-3.529c1.076-5.961-0.136-8.165-1.635-13.558
				c-0.297-0.027-0.606-0.031-0.897-0.1c-1.457,1.067-3.202,2.234-4.485,3.489c-0.43,0.419-0.803,1.033-1.17,1.516
				c-0.456,0.598-1.016,1.188-1.423,1.814c-1.107,1.704-1.854,4.056-2.392,5.981c-0.795-1.62-1.536-3.182-2.134-4.885
				c0.321-0.13,3.128-1.291,3.19-1.336c4.425-3.205,6.722-8.4,6.18-13.817c-0.243-2.439-1.211-4.6-1.694-6.958
				c-0.163,0.008-0.612-0.01-0.758-0.06c-0.799,0.799-1.565,1.691-2.393,2.453c-1.011,0.932-2.414,1.575-3.389,2.532
				c-0.852,0.835-1.893,2.027-2.592,2.991c-0.909,1.253-1.278,3.05-1.795,4.486c-0.339-1.218-0.997-2.707-0.997-3.988
				c0.464-0.436,1.37-2.08,1.748-2.671c0.666-1.042,1.512-2.258,1.9-3.449c0.204-0.624,0.276-1.42,0.412-2.074
				c1.033-4.956,0.182-8.313-2.943-12.421c-0.629-0.827-1.351-1.822-2.113-2.513c-1.365-1.234-2.101-1.086-3.33-2.831
				c-0.059,0.033-0.485,0.277-0.498,0.299c-1.463,2.583-3.271,5.333-4.347,8.115c-0.249,0.645-0.333,1.562-0.498,2.253
				c-0.364,1.521-0.571,4.482-0.339,6.021c0.059,0.393,0.312,0.859,0.445,1.242c0.966,2.778,1.853,4.369,3.582,6.732
				c0.693,0.3,0.949,0.491,1.495,1.037c-0.056,0.124-0.126,0.245-0.199,0.359c0.093,0.053,0.181,0.125,0.259,0.199h-0.559
				c-4.175-2.833-5.062-2.49-9.809-2.792c-0.157-0.101-0.308-0.226-0.439-0.358c-0.299,0.023-0.6,0.086-0.896,0.1
				c0.035,1.089,0.259,2.222,0.372,3.31c0.117,1.13,0.104,2.314,0.266,3.429c0.132,0.909,1.413,4.231,1.854,5.024
				c0.106,0.191,2.375,2.875,2.572,3.05c0.474,0.423,1.25,0.807,1.794,1.17c0.212,0.142,1.435,0.983,1.555,1.023
				c0.681,0.229,1.43,0.369,2.127,0.552c3.444,0.901,4.229,1.063,7.683,0.645c0.362,0.823,0.729,1.654,1.057,2.492l-0.1,0.299
				c-1.104-0.301-2.437-0.864-3.549-0.997c-1.316-0.158-3.093-0.083-4.426,0c-1.057,0.066-2.105,0.526-3.15,0.638
				c-0.733,0.079-2.672,0.037-3.33,0.359c0.024,0.265-0.046,0.635-0.1,0.897c0.408,1.113,0.799,2.492,1.336,3.529
				c1.125,2.168,3.329,4.966,5.383,6.32c1.17,0.771,3.279,1.428,4.606,1.754c1.651,0.406,3.452,0.819,5.163,0.598
				c1.105-0.143,4.277-1.371,4.586-1.296c0.219,0.287,2.695,3.483,2.651,3.828c-2.096-0.763-4.15-1.699-6.38-2.034
				c-1.953-0.293-4.934-0.443-6.938-0.499c-0.749-0.021-1.536,0.128-2.293,0.14c-0.107,0.362-0.04,0.746-0.04,1.116
				c0,0.032,0.021,0.384-0.06,0.379c-0.628-0.846-1.153-1.648-1.596-2.592h-0.697c-0.747,0.874-1.319,1.79-1.895,2.791
				c-0.152,0.042-0.306,0.114-0.438,0.2c-0.894-6.484-0.908-6.818-5.024-11.903v-0.837c-0.199-0.007-0.401-0.027-0.598-0.06
				c-0.353,0.31-1.673,1.396-1.954,1.794c-1.238,1.753-2.845,3.568-3.928,5.383c-0.136,0.228-1.251,3.312-1.355,3.688
				c-0.278,0.996-0.282,2.162-0.499,3.19c-0.172-0.502-0.494-1.002-0.638-1.496c-0.083-0.286,0.013-0.686-0.06-0.997
				c0.891-1.328,1.368-3.727,1.635-5.304c0.369-2.183,0.467-5.674-0.438-7.756c-0.313-0.719-0.716-1.441-1.077-2.14
				c-0.354-0.683-0.8-1.618-1.315-2.187c-0.63-0.694-1.569-1.331-2.307-1.92c-0.687-0.55-1.321-1.189-2.1-1.608
				c-1.105-0.596-2.414-1.101-3.608-1.456c-0.498-0.148-1.081-0.141-1.596-0.259c-0.056-0.25-0.114-0.496-0.199-0.738h-0.498
				c-1.049,3.073-1.414,6.009-1.622,9.225c-0.028,0.436-0.177,1.022-0.133,1.442c0.347,3.317,2.114,8.034,4.446,10.408
				c1.793,1.825,4.157,3.338,6.221,4.825l0.598,0.1c0.347,0.799,0.722,1.588,1.057,2.392c-1.351-0.663-2.678-1.542-4.047-2.133
				c-1.881-0.812-6.307-1.596-8.314-1.355c-2.265,0.271-4.526,0.92-6.738,1.455v0.438c0.493,0.715,1.121,1.41,1.555,2.153
				c0.476,0.815,0.755,1.778,1.236,2.592c0.828,1.399,2.052,2.921,3.189,4.087c0.694,0.71,3.48,2.315,4.387,2.592
				c2.003,0.611,5.244,0.921,7.377,0.837c1.709-0.067,3.852-1.05,5.443-1.695c0.119-0.22,0.257-0.432,0.398-0.638h0.498
				c1.483,1.95,2.985,3.9,4.426,5.881c-1.622-0.375-3.224-0.259-4.891-0.259c-6.32,0-8.26,0.755-13.292,4.586v0.498
				c1.948,1.761,3.932,3.651,5.981,5.284c0.845,0.673,2.104,1.144,3.09,1.548c3.917,1.606,9.249,1.554,13.1-0.313
				c1.72-0.834,3.255-1.978,4.686-3.23c0.167-0.146,0.425-0.133,0.638-0.199c1.376,1.038,2.661,2.21,4.047,3.23
				c-4.331,0.103-8.2,0.515-11.923,2.891c-0.314,0.201-0.562,0.667-0.877,0.897c-1.5,1.091-2.87,1.94-4.146,3.35v0.399l0.957-0.16
				c2.225,1.437,5.379,3.871,7.756,4.785c3.561,1.37,9.646,0.156,12.819-1.834c1.4-0.878,2.716-2.167,4.027-3.19
				c0.043-0.342,0.158-0.669,0.259-0.997c1.871,0.891,3.831,1.608,5.683,2.532c-1.836,0.357-6.556,1.611-8.075,2.652
				c-0.849,0.582-1.863,1.465-2.592,2.193c-0.64,0.64-1.123,1.474-1.754,2.133c-0.522,0.545-1.273,1.276-1.895,1.695
				c-0.356,0.24-0.608,0.22-0.937,0.598v0.459c1.099,0.629,2.315,1.146,3.469,1.668c0.77,0.348,1.574,0.828,2.353,1.123
				c2.559,0.971,5.519,0.915,8.154,0.366c0.723-0.151,1.593-0.303,2.273-0.565c0.689-0.267,1.831-0.92,2.432-1.356
				c0.375-0.271,3.647-3.622,4.486-4.825c0.408-0.585,0.719-1.333,1.097-1.954c0.647-0.038,3.901,1.269,4.486,1.495
				c0.07,0.138,0.152,0.271,0.239,0.399c-0.668,0.226-1.584,0.298-2.193,0.598c-0.599,0.294-1.234,0.865-1.788,1.256
				c-0.753,0.532-2.096,1.611-2.738,2.293c-1.646,1.75-3.024,5.889-3.987,8.175c0,0-0.03,0.667-0.06,0.797
				c2.243,0.087,8.075,0.785,10.068,0.439c0.824-0.144,1.731-0.471,2.532-0.738c0.277-0.092,1.337-0.479,1.516-0.598
				c0.734-0.49,1.512-1.293,2.146-1.928c1.076-1.076,2.116-2.29,2.877-3.615c0.653-1.136,0.98-2.588,1.556-3.788
				c2.726,0.787,5.44,1.604,8.147,2.452c1.186,0.372,2.517,0.706,3.655,1.196c0.834,0.359,4.153,2.271,4.726,2.891
				c1.025,1.115,1.51,3.282,1.562,4.779c0.061,1.752,0.313,3.611-0.166,5.33c-0.418,1.497-1.594,2.284-2.433,3.489
				c-0.48,0.69-1.063,1.722-1.396,2.493c-0.491,1.138-0.878,4.55-0.698,5.682c0.199,1.25,0.88,2.606,1.336,3.789
				c-1.517-0.737-3.162-1.129-4.785-1.555c0-4.334-1.659-6.047-3.469-9.61c-0.278-0.547-0.406-1.222-0.658-1.794h-0.438
				c-1.447,0.959-3.23,1.547-4.446,2.791c-1.344,1.375-1.922,3.251-3.13,4.686c-1.141-1.47-2.2-3.331-3.489-4.646
				c-1.473-1.502-4.816-3.489-6.938-3.828c-1.423-0.228-3.139-0.22-4.586-0.1l-0.14-0.499h-0.459
				c-0.002,0.44-0.171,0.869-0.199,1.296c-0.07,1.057,0.007,3.465,0.199,4.486c0.016,0.08,1.349,4.014,1.356,4.027
				c0.86,1.513,3.55,4.521,5.224,5.244c2.019,0.873,4.171,1.516,6.28,2.133c-3.806,0.976-5.193,1.412-8.434,3.967
				c-0.464,0.366-1.011,0.713-1.436,1.117c-0.67,0.636-1.3,1.569-1.895,2.292c0.014,0.336-0.049,0.667-0.1,0.997
				c5.832,3.243,11.918,5.036,18.542,3.589c-1.009,0.843-2.716,3.02-3.29,3.29c-0.271,1.087-1.339,3.477-2.133,4.227
				c0.053,0.396,0.071,0.816,0.199,1.196c0.102,0.098,0.221,0.184,0.339,0.26c2.123,0.184,8.45,0.658,10.527,0
				c1.112-0.353,2.259-0.824,3.35-1.256c2.187-0.866,3.757-2.247,5.482-3.828c0.104-0.095,0.47-0.493,0.678-0.458
				c-0.013,0.149,0,0.314,0.04,0.458c0.543,0.504,1.1,1.005,1.654,1.496c-0.336,3.362-0.687,5.862-1.455,9.191
				c-0.135,0.586-0.203,1.248-0.398,1.814c-0.833,2.419-2.285,5.055-3.861,7.038l-1.621,1.993c-0.806,0.483-1.602,1.069-2.433,1.496
				c-5.323,2.73-11.601,3.976-17.386,5.324c-1.247,0.29-2.617,0.282-3.848,0.638c-0.681,0.196-1.434,0.581-2.094,0.857
				c-0.402,0.168-0.93,0.317-1.296,0.538c-1.617,0.977-3.692,2.973-4.686,4.546c-0.864,1.371-2.204,4.939-2.632,6.48
				c-0.729,2.633-0.32,5.41-1.754,7.855c-1.82,3.104-4.941,4.326-7.616,6.5c-0.284,0.23-0.511,0.531-0.798,0.757
				c-0.246,0.194-0.618,0.313-0.837,0.519l-0.506,0.585c-0.589,0.683-1.174,1.403-1.827,2.027c-0.163,0.156-0.494,0.326-0.618,0.479
				c-0.46,0.567-0.826,1.413-1.196,2.054c-0.104,0.062-0.223,0.11-0.339,0.14c-0.386,0.903-0.944,1.832-1.256,2.751
				c-0.212,0.625-0.208,1.508-0.319,2.173c-0.119,0.713-0.331,1.499-0.379,2.213c-0.06,0.899,1.045,4.221,1.495,4.984
				c0.401,0.68,1,1.321,1.482,1.954c0.939,1.233,1.865,2.556,3.463,2.871c-0.334,1.796-0.985,5.199-0.798,6.938
				c0.077,0.72-0.191,1.998,0.208,4.405c0.592,3.575,1.642,5.982,1.642,5.982c-41.836-23.178-70.178-67.934-70.178-119.34V6.261
				h270.99v170.218C277.209,227.565,249.219,272.081,207.809,295.381z"/>
			<path style="fill-rule:evenodd;clip-rule:evenodd;fill:#FFFFFF;" d="M208.028,277.158c0.188-0.141,0.371-0.293,0.538-0.458
				c0-0.771,0.144-1.855,0-2.592c-0.071-0.369-0.296-0.81-0.418-1.177c-0.173-0.519-0.337-1.172-0.578-1.654
				c-0.924-1.847-3.354-3.341-4.925-4.566c-1.309-1.021-2.596-2.069-3.888-3.11c-0.361-0.291-0.964-0.433-1.296-0.757
				c-0.42-0.41-0.773-0.812-1.196-1.196c-1.532-1.393-3.102-2.901-4.387-4.526c-0.704-0.891-0.511-1.089-1.535-1.994
				c-1.479,1.528-3.371,2.793-5.383,3.489c1.597,0.387,3.371,0.518,4.925,0.997c0.879,0.271,5.097,1.932,5.841,2.333
				c0.715,0.384,3.737,2.659,4.387,3.25c1.6,1.454,4.941,5.391,5.961,7.278C206.848,273.902,207.402,275.645,208.028,277.158z"/>
			<path style="fill-rule:evenodd;clip-rule:evenodd;fill:#FFFFFF;" d="M75.843,275.662c2.499-4.843,3.706-7.073,7.676-10.926
				c-0.22-0.22-2.587,1.123-2.851,1.256C78.328,267.177,74.325,272.799,75.843,275.662z"/>
			<path style="fill-rule:evenodd;clip-rule:evenodd;fill:#FFFFFF;" d="M115.359,262.045c-0.167-1.14-0.297-2.282-0.399-3.43
				c-0.457-0.386-1.08-0.682-1.495-1.097c-0.429-0.429-0.813-1.069-1.196-1.555c-1.111-0.218-1.892,0.971-2.751,1.455
				c-0.898,0.507-1.981,0.763-2.991,0.938v0.358c2.385,0.526,4.94,1.264,7.058,2.519
				C114.123,261.553,114.731,262.045,115.359,262.045z"/>
			<path style="fill-rule:evenodd;clip-rule:evenodd;fill:#FFFFFF;" d="M168.812,262.045c1.468-0.629,2.981-1.425,4.485-1.934
				c1.68-0.569,3.553-1.002,5.284-1.396c-0.614-0.418-1.353-0.679-1.954-1.097c-1.24-0.86-2.202-2.008-3.177-3.137
				c-0.206-0.238-0.316-0.4-0.651-0.392c-0.602,1.564-1.196,2.352-2.133,3.768c-0.648,0.308-0.823,0.293-0.956,0.36
				c-0.136,0.069-0.228,0.224-0.739,0.896L168.812,262.045z"/>
			<path style="fill-rule:evenodd;clip-rule:evenodd;fill:#FFFFFF;" d="M87.945,261.546c0.967-0.464,1.935-1.046,2.931-1.436
				c2.939-1.148,6.027-1.618,9.131-2.054c-1.617-1.036-3.907-2.197-4.686-4.067h-0.299c-0.851,1.774-1.347,2.6-2.851,3.968
				C91.166,258.871,88.617,260.625,87.945,261.546z"/>
			<path style="fill-rule:evenodd;clip-rule:evenodd;fill:#FFFFFF;" d="M109.378,252.096c0.267-0.172,0.597-0.263,0.897-0.359
				c-0.423-2.324-0.231-5.178,0.697-7.377c0.588-1.393,1.523-2.744,2.233-4.087c-1.5,0.465-3.166,1.334-4.427,2.213
				c-2.186,1.523-3.809,2.972-2.751,5.908c0.255,0.708,0.662,1.735,1.256,2.247C107.905,251.175,108.69,251.646,109.378,252.096z"/>
			<path style="fill-rule:evenodd;clip-rule:evenodd;fill:#FFFFFF;" d="M181.512,242.765c-0.33-0.521-0.688-1.025-1.037-1.535
				c-0.104-0.056-0.239-0.103-0.358-0.1v-0.359c-1.207-0.569-2.282-1.49-3.489-2.093c-1.822-0.911-7.043-1.267-9.211-1.436
				c1.217,1.002,2.13,2.403,2.91,3.748c1.836,3.161,2.388,4.999,2.871,8.613c0.7,0.875,1.678,0.593,2.698,0.519
				c1.902-0.14,2.696-0.136,4.221-1.343C182.217,247.116,181.643,245.284,181.512,242.765z"/>
			<path style="fill-rule:evenodd;clip-rule:evenodd;fill:#FFFFFF;" d="M114.502,193.279c1.409-0.555,3.246-0.532,4.725-0.698
				c-0.858-0.542-1.762-1.011-2.632-1.535C115.9,191.793,115.188,192.525,114.502,193.279z"/>
			<path style="fill-rule:evenodd;clip-rule:evenodd;fill:#FFFFFF;" d="M163.029,190.108c1.593-1.021,3.501-1.979,4.745-3.389
				c-0.271-0.542-0.491-1.11-0.757-1.655c-0.118,0.057-0.267,0.103-0.399,0.1c-0.317,0.574-0.632,1.466-1.036,1.954
				C164.807,188.052,163.52,188.966,163.029,190.108z"/>
			<path style="fill-rule:evenodd;clip-rule:evenodd;fill:#FFFFFF;" d="M163.528,144.251c1.148-0.123,2.352-0.085,3.489-0.239
				c5.594-0.756,12.914-1.955,18.083-4.346c-4.109,0.56-6.775,0.297-10.54-1.302c-0.469-0.199-1.615-0.622-1.961-1.03
				C169.632,139.747,166.736,142.164,163.528,144.251z"/>
			<path style="fill-rule:evenodd;clip-rule:evenodd;fill:#FFFFFF;" d="M122.317,143.254v-0.299
				c-0.945-0.429-5.057-3.968-5.962-4.685c-0.192-0.153-1.011-1.161-1.256-1.396c-2.67,1.646-5.781,2.231-8.813,2.891
				C111.311,141.215,117.062,143.254,122.317,143.254z"/>
			<path style="fill-rule:evenodd;clip-rule:evenodd;fill:#FFFFFF;" d="M130.451,139.626h0.499c-0.13-0.49-0.08-1.017-0.199-1.496
				c-0.481-1.925-1.335-3.825-1.895-5.742c-2.094-0.073-4.62,0.002-6.679-0.499c-1.009-0.245-1.979-0.762-2.991-0.997
				c-0.431-0.1-1.003-0.089-1.455-0.139c0.402,0.583,7.666,5.791,8.334,6.28C127.397,138.01,129.03,138.768,130.451,139.626z"/>
			<path style="fill-rule:evenodd;clip-rule:evenodd;fill:#FFFFFF;" d="M155.214,139.267c2.046-0.598,4.129-1.243,6.021-2.233
				c0.646-0.338,1.223-0.842,1.874-1.196c0.973-0.529,2.01-0.953,2.971-1.496c2.596-1.464,4.895-3.525,7.138-5.442
				c0.943-0.808,1.98-1.521,2.911-2.333c1.956-1.708,3.828-3.657,5.682-5.483c-0.17-1.363-0.947-2.703-1.137-4.087
				c-0.27-1.975-0.06-5.124-0.06-7.218c-3.159,2.361-4.765,3.896-8.713,4.666c-0.496,0.097-1.141,0.31-1.635,0.319
				c-1.799,0.032-3.769-0.291-5.582-0.399c-0.704,1.749-1.346,3.619-1.895,5.423c2.961-1.775,6.489-3.86,10.009-4.187
				c0.88-0.082,1.811-0.041,2.698-0.066c1.132-0.033,2.302-0.121,3.423,0.066c0.173,0.551-1.332,4.253-1.568,4.818
				c-0.281,0.67-0.488,1.419-0.824,2.06c-0.733,1.396-1.771,2.458-2.891,3.529c-0.73,0.699-1.512,1.617-2.333,2.193
				c-2.081,1.461-4.626,2.403-7.178,2.492c-1.589,0.056-3.894-0.391-5.323-0.199C157.685,133.455,156.383,136.329,155.214,139.267z"
				/>
			<path style="fill-rule:evenodd;clip-rule:evenodd;fill:#FFFFFF;" d="M186.755,139.127c5.166-2.049,10.104-4.628,14.894-7.437
				c0.045-0.142,0.079-0.291,0.1-0.438c-1.015-1.577-0.997-6.194-0.997-8.215c-4.918,3.689-9.745,4.076-15.292,1.535
				c-0.881,0.793-1.747,1.635-2.452,2.592c5.554-0.192,7.964,0.056,13.159,2.193c0.122,0.196,0.282,0.389,0.458,0.539v1.057
				c-0.276,0.411-0.503,0.494-0.797,0.797c-0.958,0.986-1.718,2.368-2.752,3.29C191.309,136.615,188.755,137.896,186.755,139.127z"
				/>
			<path style="fill-rule:evenodd;clip-rule:evenodd;fill:#FFFFFF;" d="M95.92,136.774c0.135-0.026,0.277-0.073,0.398-0.14
				c-2.386-1.54-4.007-4.277-5.781-6.479c0.028-0.301,0.039-0.596,0.039-0.897c0.748-0.164,1.305-0.473,1.994-0.698
				c1.66-0.542,3.623-1.021,5.344-1.335c-1.958,0-3.02,0.562-4.686,0.678c-2.811,0.196-6.455-1.039-8.813-2.532
				c-0.341,0.575-1.085,4.837-1.256,5.782C87.067,133.269,91.626,135.679,95.92,136.774z"/>
			<path style="fill-rule:evenodd;clip-rule:evenodd;fill:#FFFFFF;" d="M138.268,134.481c0.659-1.184,0.535-7.388,0.498-9.111
				c-0.104,0.009-0.791,0.086-0.838,0.06c-2.29-1.304-4.443-2.879-6.738-4.147c1.375,2.803,2.681,5.74,4.187,8.474
				C136.272,131.382,137.621,132.707,138.268,134.481z"/>
			<path style="fill-rule:evenodd;clip-rule:evenodd;fill:#FFFFFF;" d="M148.236,133.645c0.252-0.357,0.7-0.734,0.896-1.097
				c2.898-5.342,5.733-10.669,8.474-16.09l-0.06-0.359c-1.549,2.611-3.58,5.354-6.181,6.979c-1.258,0.786-3.142,1.286-4.526,1.954
				C146.713,127.259,147.462,131.424,148.236,133.645z"/>
			<path style="fill-rule:evenodd;clip-rule:evenodd;fill:#FFFFFF;" d="M105.391,128.161c0.084-0.041,0.171-0.094,0.238-0.159
				l-2.592-2.433c-1.372,0.568-2.714,1.04-4.127,1.495C101.5,127.204,102.9,127.323,105.391,128.161z"/>
			<path style="fill-rule:evenodd;clip-rule:evenodd;fill:#FFFFFF;" d="M73.649,125.829l0.1-0.359
				c-0.837-1.925-1.354-3.89-1.854-5.922c-0.694,1.097-1.37,2.252-1.994,3.39c0.045,0.214,0.096,0.429,0.159,0.638
				C71.245,124.346,72.471,125.051,73.649,125.829z"/>
			<path style="fill-rule:evenodd;clip-rule:evenodd;fill:#FFFFFF;" d="M211.657,125.529c1.616-0.979,3.035-2.16,4.546-3.29v-0.299
				c-1.661-0.895-1.418-1.152-2.652-2.651h-0.299c-0.143,0.882-0.156,1.823-0.339,2.691
				C212.682,123.082,212.07,124.461,211.657,125.529z"/>
			<path style="fill-rule:evenodd;clip-rule:evenodd;fill:#FFFFFF;" d="M109.876,124.333l0.299-0.159
				c-0.293-0.577-1.72-4.313-1.894-5.184c-0.229-1.143-0.107-2.643-0.16-3.828l0.359-0.359c0.357,0.081,0.739,0.179,1.05,0.379
				l0.187,0.12c6.603,0.486,8.758,0.824,14.056,4.945c0.018,0.013,0.103,0.204,0.159,0.259l0.279,0.04
				c-0.458-1.835-1.313-3.604-2.033-5.343c-0.269,0.208-0.564,0.388-0.857,0.558c-1.48,0-3.169,0.167-4.626,0
				c-3.71-0.426-6.528-2.428-9.709-4.147c-0.21,1.031-0.335,2.78-0.698,3.688c-0.269,0.672-1.698,3.246-1.654,3.948
				C106.366,120.957,108.129,122.639,109.876,124.333z"/>
			<path style="fill-rule:evenodd;clip-rule:evenodd;fill:#FFFFFF;" d="M94.564,116.558l0.299-0.16l-3.33-3.988
				c-1.123,0.519-2.402,1.012-3.628,1.196c-1.102,0.166-3.91,0.086-5.084,0c-1.206-0.087-2.434-0.51-3.649-0.638
				c0.359,0.594,0.692,1.203,1.057,1.794c0.84-0.178,1.738-0.433,2.593-0.499C86.035,114.018,91.771,114.841,94.564,116.558z"/>
			<path style="fill-rule:evenodd;clip-rule:evenodd;fill:#FFFFFF;" d="M157.846,115.561l0.26-0.159
				c0.286-1.257,2.883-5.94,3.488-7.277c0.451-0.995,0.789-2.079,1.217-3.091c0.92-2.175,1.859-4.341,2.771-6.52
				c0.014-0.033,0-0.845,0-0.957c-0.898-0.728-1.959-1.54-2.752-2.373c-1.564-1.641-2.854-3.735-4.326-5.483
				c-0.493,0.685-0.653,2.114-0.897,2.891c-0.143,0.454-0.413,0.935-0.604,1.376c-0.454,1.048-0.829,2.309-1.389,3.29
				c-0.311,0.542-0.882,1.079-1.276,1.575c-1.546,1.945-3.239,3.608-5.463,4.805c-1.085,0.584-2.432,0.854-3.569,1.355l-0.299,0.539
				c0.077,2.091,0.231,4.189,0.339,6.281c2.317-2.983,4.953-5.839,8.314-7.676c0.342-0.187,0.96-0.258,1.349-0.379
				c1.035-0.321,2.141-0.737,3.197-0.957c0.502-0.105,1.08-0.104,1.595-0.16C160.139,106.556,158.8,111.743,157.846,115.561z"/>
			<path style="fill-rule:evenodd;clip-rule:evenodd;fill:#FFFFFF;" d="M222.981,115.561c1.296-1.426,2.706-2.746,4.027-4.147
				v-0.439c-0.341-0.446-0.673-0.896-0.997-1.355h-0.299c-0.575-0.839-1.276-1.618-1.794-2.492c-0.13,1.501-0.028,3.059-0.199,4.546
				C223.569,112.972,223.159,114.261,222.981,115.561z"/>
			<path style="fill-rule:evenodd;clip-rule:evenodd;fill:#FFFFFF;" d="M59.534,115.361h0.358c-0.234-1.512-0.335-3.063-0.498-4.586
				c-0.767,0.655-1.555,1.309-2.293,1.994C57.736,113.764,58.689,114.558,59.534,115.361z"/>
			<path style="fill-rule:evenodd;clip-rule:evenodd;fill:#FFFFFF;" d="M193.733,114.703c1.418-0.42,2.843-0.945,4.326-1.097
				c2.53-0.257,5.371,0.111,7.876,0.499c0.711-0.805,1.621-1.366,2.492-1.994c0.063-0.046,1.345-1.384,1.734-1.695l0.398,0.399
				v0.558c0.389,0.454,0.801,0.888,1.196,1.336c0.102-1.507,0.181-2.99,0.398-4.486c-0.109,0.029-0.226,0.051-0.339,0.06
				c-2.714,2.715-5.226,4.217-9.111,4.406c-0.52,0.025-1.144,0.125-1.654,0.08c-1.838-0.164-3.68-0.604-5.523-0.798
				C194.927,112.879,194.314,113.784,193.733,114.703z"/>
			<path style="fill-rule:evenodd;clip-rule:evenodd;fill:#FFFFFF;" d="M138.427,111.374h0.339c-0.053-1.743-0.126-3.501-0.1-5.244
				c-1.238-1.307-3.195-1.291-4.785-1.994c-0.929-0.411-1.879-1.064-2.765-1.575c-4.887-2.819-5.593-5.014-7.304-10.228
				c-0.869,1.186-2.228,3.119-3.489,3.788c1.818,4.52,3.644,9.048,5.384,13.598c0.271-2.317,0.302-4.676,0.657-6.979
				c0.244-0.016,0.493-0.072,0.737-0.1c1.535,1.535,3.136,1.837,4.984,2.852C135.161,107.178,136.37,108.495,138.427,111.374z"/>
			<path style="fill-rule:evenodd;clip-rule:evenodd;fill:#FFFFFF;" d="M191.241,109.878c0.72-0.594,1.275-1.504,1.794-2.253v-0.837
				c-0.813-1.093-1.715-2.117-2.552-3.19C190.881,105.676,191.106,107.768,191.241,109.878z"/>
			<path style="fill-rule:evenodd;clip-rule:evenodd;fill:#FFFFFF;" d="M118.19,105.093l0.1-0.499
				c-0.723-1.988-1.484-3.963-2.233-5.941c-4.252,0-8.432-0.417-12.461-1.814c-0.621-0.216-1.37-0.386-1.954-0.678
				c-1.95-0.976-3.69-2.568-5.124-4.167c-0.083,0.328,0.595,4.291,0.639,4.825c0.082,1.003-0.091,2.174-0.14,3.19
				c0.774-0.567,1.604-2.856,1.694-3.888c0.405,1.042,1.441,1.799,2.333,2.393c0.178-0.28,0.355-0.557,0.498-0.857
				c0.856,0.057,1.723,0.311,2.572,0.438c0.897,0.136,1.791,0.199,2.672,0.438C110.602,99.574,115.622,101.969,118.19,105.093z"/>
			<path style="fill-rule:evenodd;clip-rule:evenodd;fill:#FFFFFF;" d="M169.17,102.74c1.251-0.614,2.367-1.752,3.549-2.512
				c0.809-0.52,1.813-0.819,2.712-1.157c0.463-0.173,1.079-0.48,1.556-0.558c2.862-0.468,5.809-1.042,8.712-1.196
				c0.01,0.585-0.123,0.929-0.398,1.436c0.058,0.118,0.103,0.266,0.1,0.398c0.548-0.55,1.124-1.104,1.495-1.794h0.499
				c0.046,0.265,0.113,0.526,0.1,0.797c0.238,0.261,0.457,0.541,0.697,0.797c0.22,0-0.008-0.835-0.013-0.864
				c-0.154-0.833-0.326-1.593-0.326-2.439c0-1.146-0.097-2.381,0-3.516c0.094-1.097,0.495-2.225,0.639-3.33
				c-0.119-0.048-0.959,1.149-1.117,1.356c-1.063,1.393-2.239,2.826-3.668,3.868c-0.894,0.651-2.713,1.659-3.788,1.994
				c-2.259,0.703-6.41,1.276-8.853,1.336C170.665,97.781,169.35,102.182,169.17,102.74z"/>
			<path style="fill-rule:evenodd;clip-rule:evenodd;fill:#FFFFFF;" d="M85.951,99.61c0.072-0.04,0.147-0.095,0.199-0.16
				c0.335-2.043,1.06-4.077,1.296-6.121c-1.018,1.287-2.324,1.99-3.729,2.831C83.763,97.204,85.302,98.762,85.951,99.61z"/>
			<path style="fill-rule:evenodd;clip-rule:evenodd;fill:#FFFFFF;" d="M199.416,99.112c0.953-1.399,1.842-2.695,2.631-4.187
				c-0.558-0.283-2.727-2.118-2.831-2.133C199.383,94.924,199.393,96.979,199.416,99.112z"/>
			<path style="fill-rule:evenodd;clip-rule:evenodd;fill:#FFFFFF;" d="M138.766,93.928c0.132-2.853,0.146-5.718,0.199-8.573
				c-1.229-0.521-2.614-0.614-3.901-0.943c-4.651-1.19-6.219-3.042-9.157-6.673c0.05,2.3,0.291,4.525,0.558,6.819
				c1.158,0.385,2.597,0.514,3.688,0.997c0.496,0.22,1.026,0.652,1.502,0.938C135.1,88.558,136.682,90.472,138.766,93.928z"/>
			<path style="fill-rule:evenodd;clip-rule:evenodd;fill:#FFFFFF;" d="M143.909,92.433h0.339c1.15-2.685,6.091-4.888,8.813-5.583
				c1.117-0.285,2.492-0.215,3.648-0.339c-0.129-1.639-0.61-3.231-0.758-4.845c-0.154-1.707-0.041-3.758,0.16-5.483
				c-1.168,1.375-2.143,2.949-3.35,4.287c-2.15,2.382-5.908,3.619-8.912,4.287C143.928,87.31,143.909,89.878,143.909,92.433z"/>
			<path style="fill-rule:evenodd;clip-rule:evenodd;fill:#FFFFFF;" d="M206.374,86.95c1.237-1.792,1.819-3.527,2.651-5.483
				c-0.271-0.111-0.726-0.188-0.957-0.339c-0.724-0.474-2.774-2.157-3.369-2.752c-0.034,0.063-0.009,0.134,0,0.2
				c0.104,0.787,0.418,1.591,0.638,2.353C205.901,82.881,206.326,84.906,206.374,86.95z"/>
			<path style="fill-rule:evenodd;clip-rule:evenodd;fill:#FFFFFF;" d="M175.49,68.866c0.732-2.214,1.434-4.359,1.994-6.62
				c-0.331-0.051-0.661-0.114-0.997-0.1c-1.164-0.792-2.501-1.577-3.589-2.452c-0.767-0.616-1.431-1.404-2.133-2.094
				c0.462,0.688,1.018,1.341,1.436,2.054C173.816,62.41,174.934,65.732,175.49,68.866z"/>
		</g>
		<g>
			
				<path style="fill-rule:evenodd;clip-rule:evenodd;fill:#009944;stroke:#009944;stroke-width:0.2835;stroke-miterlimit:3.8637;" d="
				M82.861,299.171c0,0-1.461-2.176-2.154-3.693c-1.13-2.47-1.375-3.967-1.834-6.717c-0.302-1.814-0.188-5.681,0.16-7.477
				c0.119-0.616,0.251-1.546,0.425-2.154c0.24-0.842,0.577-1.53,0.91-2.332c0.817-1.967,2.048-4.066,3.39-5.722
				c0.52-0.641,1.274-1.22,1.874-1.794c0.612-0.585,1.212-1.271,1.874-1.794c4.734-3.737,11.482-5.163,17.386-4.247
				c2.765,0.429,7.161,2.344,9.371,4.087c0.64,0.505,3.876,3.44,4.565,3.688c0.136,0.416,0.582,0.702,0.658,1.157
				c1.143,0.609,1.92,1.837,2.731,2.831c-0.589-4.401-1.449-8.771-2.134-13.159c-0.243-1.561,0.041-4.921,0.326-6.454
				c1.466-7.88,6.747-13.759,14.288-16.375c1.554-0.539,3.074-1.001,4.726-1.177c0.822-0.087,1.757,0,2.592,0
				c0.722,0,1.52-0.07,2.232,0c2.448,0.241,7.089,1.594,9.111,2.991c0.541,0.373,3.323,2.794,3.849,2.931v0.359
				c0.699,0.127,2.088,2.209,2.412,2.671c2.147,3.062,2.992,5.488,3.895,9.099c0.174,0.696,0.472,1.465,0.571,2.167
				c0.264,1.846-0.104,5.965-0.272,7.736c-0.181,1.905-0.327,3.857-0.784,5.723c0.303,0.021,3.052-1.788,3.35-1.994
				c1.697-1.175,3.491-2.593,5.283-3.589c2.661-1.479,5.937-2.356,8.952-2.691c2.631-0.292,5.825,0.252,8.334,0.997
				c2.128,0.631,5.851,2.878,7.517,4.246c0.256,0.21,0.889,0.999,1.256,1.037v0.299c1.479,1.109,2.636,2.899,3.549,4.506
				c0.701,1.234,1.582,2.611,2.034,3.967c1.618,4.857,1.524,10.47,0.138,14.83c-0.158,0.496-0.904,2.689-1.14,3.145
				c-0.527,1.017-1.041,2.378-2.652,3.344c-17.565,8.362-37.207,13.04-57.936,13.04C120.624,312.652,100.66,307.81,82.861,299.171z"
				/>
			
				<path style="fill-rule:evenodd;clip-rule:evenodd;fill:#009944;stroke:#009944;stroke-width:0.2835;stroke-miterlimit:3.8637;" d="
				M72.493,271.814h0.358c0.724-5.48,4.283-8.319,8.634-11.285c2.338-1.594,4.771-3.162,6.998-4.904
				c0.512-0.401,0.979-0.979,1.442-1.442c3.517-3.518,3.576-4.906,5.994-8.826c0.464-0.752,1.052-1.447,1.535-2.193
				c-0.196,1.831-0.511,5.333,0.359,6.978c0.226,0.429,0.584,0.868,0.856,1.276c0.246,0.368,0.53,0.909,0.838,1.216
				c0.638,0.639,2.262,1.519,3.13,1.834c1.051,0.382,2.579,0.857,3.688,0.857c0.695,0,1.577-0.309,2.293-0.399l0.259-0.538
				c-1.354-0.518-2.76-0.978-4.146-1.396c-0.821-2.082-2.812-3.511-3.29-5.782c-0.098-0.466,0.217-1.764,0.313-2.167
				c1.39-5.855,10.565-8.627,15.199-10.694c2.496-1.113,4.939-2.721,7.257-4.146c0.175-0.108,3.191-3.055,3.25-3.131
				c0.471-0.613,0.743-1.281,1.296-1.854c0.159-0.037,0.335-0.053,0.499-0.04c-0.071,0.377-0.073,0.85-0.061,1.236
				c-1.874,3.141-4.129,6.043-6.818,8.534c-2.053,1.9-4.335,3.595-6.141,5.762c-0.945,1.134-1.501,2.187-2.113,3.509
				c-0.68,1.465-1.512,3.744-1.217,5.383c0.076,0.419,0.264,0.845,0.379,1.256c0.43,1.528,0.943,2.696,1.975,3.928
				c0.142,0.045,0.291,0.08,0.438,0.1c0.162-0.709,0.229-1.451,0.398-2.153c0.636-2.65,2.05-5.604,3.528-7.875
				c0.678-1.04,1.552-1.987,2.333-2.951c0.214-0.264,0.43-0.644,0.658-0.877c5.719-5.844,13.954-8.864,22.091-8.175
				c1.243,0.105,3.227,0.539,4.466,0.837c3.123,0.751,6.706,2.824,9.237,4.772c0.722,0.555,1.639,1.087,2.287,1.708
				c2.475,2.37,5.76,7.305,6.672,10.58c0.106,0.381,0.929,3.6,1.203,3.835c0.231-0.232,0.567-0.914,0.638-1.196
				c0.272-1.09-0.349-6.3-0.737-7.277c-0.709-1.783-1.95-4.25-3.15-5.782c-1.311-1.672-3.066-3.261-4.592-4.725
				c-0.314-0.301-1.885-1.919-2.326-2.014c-1.032-1.493-2.382-2.864-3.29-4.426c-0.804-1.382-1.418-3.548-1.993-5.084l0.139-0.199
				c1.117,1.61,2.881,3.882,4.347,5.124c0.786,0.666,1.906,1.188,2.791,1.734c0.507,0.313,1.097,0.789,1.635,1.017
				c0.617,0.262,1.468,0.387,2.127,0.552c0.959,0.24,1.987,0.598,2.958,0.744c3.031,0.458,6.188,0.563,9.171,1.336
				c1.509,0.392,3.335,1.467,4.632,2.313c3.216,2.097,6.196,5.086,5.005,9.258c-0.124,0.434-0.226,1.056-0.426,1.449
				c-0.313,0.615-0.919,1.287-1.329,1.861c-1.541,2.157-4.387,2.894-6.785,3.622l-0.1,0.339c0.146,0.019,0.295,0.042,0.438,0.08
				l0.299,0.319l1.595,0.359c0.241,0.301,2.444,0.108,2.698,0.02c1.005-0.348,1.999-0.656,2.925-1.196
				c1.729-1.009,3.903-3.856,4.406-5.901c0.404-1.645,0.495-3.59,0.697-5.284l0.299,0.14c0.023,1.332-0.025,3.723,0.26,4.945
				c0.899,3.854,5.089,8.992,8.015,11.604c1.478,1.319,3.1,2.524,4.626,3.788c1.225,1.016,2.402,2.294,3.535,3.409
				c1.422,1.401,3.111,2.747,3.842,4.666c0.414-2.277-0.552-5.332-1.994-7.078c-0.734-0.889-1.718-1.717-2.525-2.552
				c-1.383-1.43-2.76-2.868-4.154-4.287c-0.608-0.619-1.38-1.219-1.934-1.874c-0.574-0.68-3.534-4.788-3.987-5.782
				c-0.401-0.879-0.597-2.013-0.857-2.951c-0.813-2.93-1.367-6.06-1.993-9.072c-0.156-0.749-1.261-2.511-1.742-3.117
				c-0.807-1.017-1.809-2.228-2.943-2.904c-2.055-1.224-11.961-2.052-15.033-2.691c-0.997-0.207-2.094-0.678-3.07-1.003
				c-1.168-0.39-2.439-0.673-3.568-1.15c-2.009-0.848-3.868-2.197-5.649-3.416c-0.502-0.344-1.301-0.639-1.728-1.01
				c-0.526-0.457-0.901-1.062-1.496-1.535c0.072-0.467-2.729-4.925-2.99-5.443c-0.473-0.938-1.842-7.71-1.994-8.613
				c-0.282-1.686-0.149-3.898-0.199-5.643c-1.92,0.628-4.157,1.01-6.181,0.598c-0.21-0.042-2.87-1.307-3.229-1.496
				c-0.128,0.066-0.295,0.106-0.438,0.1c-0.936,1.005-2.063,2.058-3.29,2.692c-2.525,1.306-6.618,0.727-9.131-0.399
				c-0.445,3.176-0.733,7.727-1.795,10.667c-0.458,1.268-2.109,4.763-2.791,5.941c-0.511,0.882-3.5,4.542-4.227,5.084
				c-3.381,2.522-9.612,4.371-13.657,5.463c-1.244,0.335-2.569,0.392-3.828,0.658c-2.604,0.551-5.756,0.938-8.234,1.994
				c-3.86,1.645-5.776,5.578-6.918,9.371c-0.464,1.539-0.329,3.395-0.658,4.985c-0.3,1.449-0.927,2.875-1.276,4.326l-0.558,0.259
				c-0.823,2.282-6.133,5.583-8.115,7.317c-2.23,1.953-6.405,7.552-6.679,10.508C72.038,268.305,72.431,271.426,72.493,271.814z"/>
			
				<path style="fill-rule:evenodd;clip-rule:evenodd;fill:#009944;stroke:#009944;stroke-width:0.2835;stroke-miterlimit:3.8637;" d="
				M110.873,200.915c6.866-0.436,7.001-0.037,12.541-4.087c-0.763-0.987-2.498-1.486-3.709-1.535
				c-0.855-0.035-2.092-0.253-2.91-0.12c-1.561,0.254-4.764,2.645-5.623,3.948c-0.303,0.459-0.437,1.126-0.658,1.635
				C110.637,200.799,110.76,200.852,110.873,200.915z"/>
			
				<path style="fill-rule:evenodd;clip-rule:evenodd;fill:#009944;stroke:#009944;stroke-width:0.2835;stroke-miterlimit:3.8637;" d="
				M141.158,196.07l-0.838-0.698c-1.642-0.665-5.318-0.67-7.037-0.04c-0.828,0.304-1.688,0.848-2.492,1.236
				c0.045,0.285,0.113,0.567,0.1,0.857c0.865,0.59,2.181,1.336,3.249,1.336C135.092,198.762,141.907,198.363,141.158,196.07z"/>
			
				<path style="fill-rule:evenodd;clip-rule:evenodd;fill:#009944;stroke:#009944;stroke-width:0.2835;stroke-miterlimit:3.8637;" d="
				M176.627,198.263c-0.193-1.003-0.538-1.417-1.137-2.233c-0.099-0.051-0.339-0.459-0.339-0.459
				c-1.194-0.682-2.413-1.676-3.648-2.232c-2.531-1.142-5.796-1.046-8.374-0.1v0.539c2.576,2.244,5.567,3.593,8.833,4.526
				c0.262,0.075,1.523,0.458,1.694,0.458C174.545,198.762,175.725,198.409,176.627,198.263z"/>
			
				<path style="fill-rule:evenodd;clip-rule:evenodd;fill:#009944;stroke:#009944;stroke-width:0.2835;stroke-miterlimit:3.8637;" d="
				M152.622,195.971v-1.735c-0.319-0.209-0.674-0.356-0.997-0.558c-1.761,0-3.704-0.031-5.383,0.598
				c-0.576,0.216-1.161,0.723-1.734,0.997v0.559c0.602,0.489,1.984,1.507,2.731,1.595c0.373,0.044,0.871-0.062,1.256-0.08
				C150.115,197.269,151.341,196.996,152.622,195.971z"/>
			
				<path style="fill-rule:evenodd;clip-rule:evenodd;fill:#009944;stroke:#009944;stroke-width:0.2835;stroke-miterlimit:3.8637;" d="
				M142.255,194.275c0.978-0.196,1.717-0.858,2.592-1.296c0.602-0.301,1.394-0.402,2.033-0.638c0.054-0.067,0.104-0.171,0.1-0.259
				c-0.688-0.637-1.517-1.276-2.133-1.974c-1.156-1.311-0.929-1.717-2.532-2.951c-1.639,2.576-2.257,3.331-4.446,5.383v0.299
				C140.147,193.375,140.104,193.176,142.255,194.275z"/>
			
				<path style="fill-rule:evenodd;clip-rule:evenodd;fill:#009944;stroke:#009944;stroke-width:0.2835;stroke-miterlimit:3.8637;" d="
				M112.408,189.65c0.166-0.353,0.194-0.359,0.498-0.598c-0.033-0.174-0.053-0.361-0.039-0.538
				c-1.002-1.082-2.563-1.559-3.961-1.895c-0.828-0.198-1.679-0.477-2.52-0.598c-1.482-0.215-4.292,0.343-5.582,1.196
				c-0.869,0.575-1.636,1.385-2.353,2.133c0.091,0.367,0.213,0.719,0.259,1.096c0.546,0.394,3.54,1.391,4.027,1.496
				c0.399,0.085,4.427-0.015,4.984-0.1c0.362-0.055,1.832-0.483,2.153-0.638C110.716,190.8,111.592,190.135,112.408,189.65z"/>
			
				<path style="fill-rule:evenodd;clip-rule:evenodd;fill:#009944;stroke:#009944;stroke-width:0.2835;stroke-miterlimit:3.8637;" d="
				M128.159,191.943c-0.072-0.67,0.072-1.497-0.061-2.133c-0.173-0.836-1.018-2.229-1.481-2.904
				c-1.842-2.679-3.929-4.253-7.131-4.932c0.386,2.046,0.345,2.445,1.076,4.52c0.917,2.598,2.051,2.896,4.406,4.174
				C126.141,191.302,126.828,191.943,128.159,191.943z"/>
			
				<path style="fill-rule:evenodd;clip-rule:evenodd;fill:#009944;stroke:#009944;stroke-width:0.2835;stroke-miterlimit:3.8637;" d="
				M131.289,191.444c0.236-0.102,1.384-0.598,1.654-0.598c2.981-1.861,4.174-2.176,5.969-5.204c0.4-0.677,0.835-1.501,0.91-2.313
				c0.067-0.724,0-1.522,0-2.253c-2.148-0.238-5.416,1.862-6.739,3.449c-0.591,0.709-1.039,1.816-1.441,2.652
				c-0.14,0.289-0.689,1.271-0.731,1.535C130.806,189.375,131.163,190.83,131.289,191.444z"/>
			
				<path style="fill-rule:evenodd;clip-rule:evenodd;fill:#009944;stroke:#009944;stroke-width:0.2835;stroke-miterlimit:3.8637;" d="
				M187.553,188.713c0.061-0.248,0.07-0.505,0.1-0.758c-0.136-0.298-0.243-0.592-0.359-0.897c-0.757-0.422-1.542-0.998-2.332-1.336
				c-2.188-0.938-5.95-0.755-8.175-0.199c-1.045,0.261-2.179,1.187-3.09,1.735c-0.071,0.175-0.175,0.355-0.3,0.498
				c1.098,0.585,2.259,1.497,3.39,1.954c0.193,0.078,4.699,1.229,4.825,1.236c0.792,0.047,3.934-0.821,4.646-1.236
				C186.709,189.446,187.099,188.999,187.553,188.713z"/>
			
				<path style="fill-rule:evenodd;clip-rule:evenodd;fill:#009944;stroke:#009944;stroke-width:0.2835;stroke-miterlimit:3.8637;" d="
				M156.351,190.447c0.507-0.106,1.112-0.125,1.595-0.299c2.279-0.823,5.869-4.743,6.64-6.918c0.164-0.465,0.117-1.979,0.1-2.492
				c-0.324,0-0.743-0.052-1.057,0c-1.875,0.313-5.266,2.91-6.221,4.386c-0.372,0.574-0.778,1.539-0.997,2.193
				C156.18,188.011,156.333,189.726,156.351,190.447z"/>
			
				<path style="fill-rule:evenodd;clip-rule:evenodd;fill:#009944;stroke:#009944;stroke-width:0.2835;stroke-miterlimit:3.8637;" d="
				M153.359,190.308c0-0.188,0.018-1.594,0-1.655c-0.129-0.455-0.42-0.939-0.617-1.376c-0.934-2.061-1.547-2.451-3.23-3.994
				c-0.564-0.518-1.158-1.164-1.774-1.608c-0.78-0.563-1.907-0.718-2.831-0.837c0.063,0.618,0.1,1.399,0.239,1.994
				c0.447,1.91,2.647,4.383,4.187,5.523c0.597,0.442,1.346,0.802,1.994,1.169C151.979,189.894,152.728,189.872,153.359,190.308z"/>
			
				<path style="fill-rule:evenodd;clip-rule:evenodd;fill:#009944;stroke:#009944;stroke-width:0.2835;stroke-miterlimit:3.8637;" d="
				M111.87,184.127c0.228-0.101,0.452-0.208,0.697-0.259c0.693-1.001,2.533-3.621,2.692-4.785c0.099-0.729-0.021-1.594-0.021-2.339
				c0-0.478,0.036-1.689-0.14-2.147c-0.319-0.833-0.844-1.681-1.236-2.492c-0.313-0.025-0.828-0.044-1.096,0.16
				c-1.048,0.793-3.098,4.646-3.35,6.021c-0.01,0.053-0.012,2.294,0,2.353C109.643,181.86,110.954,183.357,111.87,184.127z"/>
			
				<path style="fill-rule:evenodd;clip-rule:evenodd;fill:#009944;stroke:#009944;stroke-width:0.2835;stroke-miterlimit:3.8637;" d="
				M169.51,183.828c1.734-0.946,3.505-2.374,4.984-3.648c0.168-0.145,2.308-2.998,2.392-3.19c0.407-0.932,0.79-3.271,0.499-4.326
				c-0.061-0.22-0.301-0.476-0.398-0.698c-0.816-0.225-1.59,0.146-2.313,0.479c-0.798,0.368-1.956,0.929-2.571,1.615
				c-0.362,0.403-2.248,3.021-2.393,3.589c-0.198,0.773-0.229,1.685-0.346,2.485C169.181,181.372,169.062,182.639,169.51,183.828z"
				/>
			
				<path style="fill-rule:evenodd;clip-rule:evenodd;fill:#009944;stroke:#009944;stroke-width:0.2835;stroke-miterlimit:3.8637;" d="
				M154.058,181.974c1.285-1.241,2.345-4.315,2.552-6.121c0.09-0.784-0.079-1.728-0.079-2.532c0-0.211-0.001-1.74-0.021-1.814
				c-0.192-0.731-0.783-1.669-1.097-2.393c-0.173,0.062-0.373,0.104-0.558,0.1c-0.305,0.293-0.785,0.578-1.037,0.897
				c-0.477,0.605-0.838,1.469-1.143,2.173c-0.303,0.698-0.694,1.451-0.911,2.173c-0.02,0.066,0,1.004,0,1.157
				c0,0.221-0.02,1.795,0,1.874C152.162,179.111,152.985,180.702,154.058,181.974z"/>
			
				<path style="fill-rule:evenodd;clip-rule:evenodd;fill:#009944;stroke:#009944;stroke-width:0.2835;stroke-miterlimit:3.8637;" d="
				M128.458,181.635c0.185-0.068,0.401-0.105,0.598-0.1l0.798-0.658c0.347-1.25,0.994-2.627,1.196-3.888
				c0.097-0.602,0-1.393,0-2.014c0-3.23-0.322-4.12-2.193-6.699h-0.458c-1.232,1.291-2.719,2.999-3.031,4.825
				c-0.09,0.526,0,1.242,0,1.788c0,1.141,0.177,2.313,0.698,3.356C126.683,179.479,127.831,180.438,128.458,181.635z"/>
			
				<path style="fill-rule:evenodd;clip-rule:evenodd;fill:#009944;stroke:#009944;stroke-width:0.2835;stroke-miterlimit:3.8637;" d="
				M134.938,179.841c0.794-0.346,1.615-0.671,2.433-0.957l0.299-0.399c-0.393-1.307-1.083-2.702-1.336-4.028
				c-0.286-1.505,1.217-5.976,2.094-7.178c0.24-0.329,0.754-0.557,1.036-0.857c0.558-0.59,1.068-1.34,1.556-1.994h0.538l0.199,0.757
				c0.781,0.179,1.317,0.692,1.941,1.196c2.505,2.023,3.269,5.276,2.943,8.414c-0.105,1.019-0.589,2.356-0.896,3.35
				c1.247,0.255,2.331,0.567,3.488,1.097c-0.21-5.458-0.012-7.138,3.39-11.624c0.054-1.521-0.038-3.186,0.14-4.686
				c0.135-1.138,0.413-2.264,0.538-3.416c0.146-1.343,0.219-2.781,0.459-4.101c0.011-0.063,1.063-2.351,1.189-2.638
				c0.073-0.168,0.507-1.227,0.564-1.29c0.054-0.057,2.675-1.936,2.792-1.994c0.183-0.092,4.605-1.275,5.023-1.356
				c0.64-0.124,1.367,0.005,1.994-0.14c2.267-0.521,4.536-1.028,6.818-1.475c2.743-0.538,5.442-0.967,8.075-1.954
				c-4.487,0.679-8.996,1.771-13.598,2.273c-3.4,0.372-6.89,0.444-10.308,0.658c-1.361,0.085-2.058-1.028-1.455-2.233
				c0.314-0.63,5.695-3.412,6.28-3.749c2.091-1.205,4.458-2.754,6.24-4.366c0.066-0.06,0.218-0.215,0.14-0.319
				c-4.586,2.244-7.287,4.061-12.222,5.523c-0.508,0.15-1.12,0.436-1.635,0.498l-0.997-0.199c-0.397-0.42-0.747-0.69-1.296-0.837
				c-0.381-0.808-0.445-0.698-0.599-1.695c2.339-4.832,11.823-25.41,11.823-27.913c-1.536,2.746-2.604,5.661-3.987,8.474
				c-0.692,1.407-1.553,2.76-2.293,4.147c-1.088,2.04-2.092,4.127-3.189,6.161c-1.553,2.875-3.375,5.63-5.145,8.374
				c-0.037,0.059-0.51,0.396-0.598,0.459c-1.264,0.093-1.517-0.062-2.074-1.396c-0.262-0.626-0.343-1.556-0.479-2.233
				c-0.768-3.842-1.107-7.735-1.521-11.63c-0.822-7.731-1.379-15.546-1.588-23.321c-0.142-0.206-0.28-0.419-0.399-0.638
				c0,4.583-0.062,9.175,0,13.757c0.044,3.267,0.339,6.543,0.339,9.81c0,2.92-0.146,5.885-0.358,8.792
				c-0.111,1.518-0.18,3.11-0.479,4.606c-0.086,0.428-0.546,0.872-0.897,1.097h-2.193c-3.42-1.91-7.955-12.587-9.67-15.99
				c0.293,1.553,1.028,3.081,1.596,4.546l2.532,6.56c0.7,1.805,1.776,5.429,1.854,7.277c0.003,0.052-0.262,0.72-0.299,0.857
				c-0.544,0.278-1.063,0.595-1.595,0.897c-0.148,0-1.352,0.016-1.396,0c-0.578-0.196-1.229-0.661-1.774-0.957
				c-0.94-0.51-2.023-0.954-2.911-1.535c-1.66-1.085-3.242-2.375-4.845-3.549c-4.56-3.337-9.158-6.91-13.338-10.707
				c-1.912-1.736-3.688-3.68-5.543-5.483c0,1.198,16.389,15.269,17.386,16.09c2.748,2.263,5.876,4.198,8.732,6.34l0.119,0.239
				c0.179,0.356,0.514,0.825,0.618,1.196c0.019,0.066,0,1,0,1.157l-1.097,0.737c-2.824,0-5.832-0.004-8.612-0.498
				c-4.957-0.881-9.856-2.227-14.668-3.676c-5.154-1.553-10.435-2.986-15.438-4.998c-5.246-2.109-10.649-5.347-15.592-8.115
				c0,0.269,3.655,2.356,3.947,2.532c1.82,1.09,3.639,2.204,5.483,3.25c6.523,3.697,17.205,7.878,24.603,10.009
				c2.831,0.815,5.804,1.197,8.633,1.994c1.916,0.54,6.049,1.906,7.855,2.652c0.826,0.34,1.66,0.873,2.453,1.296
				c0.519,0.865,1.588,1.344,2.232,2.094l0.445,1.109c1.271,3.085,0.969,5.118,1.409,8.201c0.192,1.352,0.668,2.603,0.937,3.928
				c0.925,0.925,1.875,2.039,2.553,3.15l1.336,3.589c0.118,0.74,0,1.715,0,2.479c0,0.544,0.078,1.217,0,1.748
				C135.543,177.984,135.172,178.957,134.938,179.841z"/>
			
				<path style="fill-rule:evenodd;clip-rule:evenodd;fill:#009944;stroke:#009944;stroke-width:0.2835;stroke-miterlimit:3.8637;" d="
				M105.729,179.641c-0.415-2.945-0.628-2.708-1.935-5.244l-0.358-0.1c-0.637-0.884-1.371-2.144-2.134-2.891
				c-0.041-0.041-0.405-0.219-0.479-0.259c-0.368-0.204-3.086-1.811-3.17-1.834c-0.778-0.215-1.969-0.205-2.791-0.239l-0.199,0.199
				c0.176,1.584,0.624,2.596,1.389,4.008c0.394,0.726,0.777,1.621,1.263,2.272c0.036,0.049,0.459,0.308,0.559,0.399
				c0.236,0.218,0.403,0.531,0.638,0.738c1.92,1.694,4.108,2.363,6.52,2.951C105.112,179.661,105.602,179.641,105.729,179.641z"/>
			
				<path style="fill-rule:evenodd;clip-rule:evenodd;fill:#009944;stroke:#009944;stroke-width:0.2835;stroke-miterlimit:3.8637;" d="
				M141.417,178.844c0.277-0.153,0.748-0.526,0.897-0.798c0.119-0.217,1.324-3.565,1.336-3.688c0.047-0.497-0.231-3.353-0.498-3.888
				c-0.26-0.518-0.831-1.092-1.197-1.555h-0.797c-1.86,3.07-2.486,4.32-1.104,7.716c0.27,0.662,0.665,1.331,0.864,2.014
				C141.075,178.727,141.246,178.798,141.417,178.844z"/>
			
				<path style="fill-rule:evenodd;clip-rule:evenodd;fill:#009944;stroke:#009944;stroke-width:0.2835;stroke-miterlimit:3.8637;" d="
				M193.733,170.868c-5.033,0.261-4.94-0.881-8.713,2.892c-1.239,1.239-2.003,2.111-2.751,3.728
				c0.775,0.285,2.577,0.708,3.329,0.658c0.967-0.064,3.859-1.595,4.586-2.153C191.288,175.145,193.423,172.267,193.733,170.868z"/>
			
				<path style="fill-rule:evenodd;clip-rule:evenodd;fill:#009944;stroke:#009944;stroke-width:0.2835;stroke-miterlimit:3.8637;" d="
				M92.57,155.576c2.598-0.212,3.386-0.149,5.981-0.938c0.705-0.214,1.592-0.358,2.253-0.658c1.566-0.708,2.656-2.92,3.489-4.287
				c0.231-0.38,0.482-1.152,0.598-1.595c-0.827,0.025-1.738-0.046-2.552,0.04c-0.279,0.029-3.928,0.797-3.928,0.797
				c-0.653,0.365-1.459,1.204-2.033,1.715C93.768,152.973,93.855,152.536,92.57,155.576z"/>
			
				<path style="fill-rule:evenodd;clip-rule:evenodd;fill:#009944;stroke:#009944;stroke-width:0.2835;stroke-miterlimit:3.8637;" d="
				M194.132,154.479c0.033-0.125,0.053-0.269,0.04-0.398c-2.466-3.069-5.77-4.898-9.57-5.742c-1.583-0.352-3.16-0.059-4.685-0.698
				c0.05,0.618,0.112,1.233,0.1,1.854c0.575,0.806,1.232,1.89,1.993,2.532c1.514,1.277,5.026,2.802,7.078,3.05
				c0.551,0.067,1.352-0.103,1.921-0.146c0.718-0.056,1.524,0,2.226-0.113C193.515,154.773,193.821,154.541,194.132,154.479z"/>
			
				<path style="fill-rule:evenodd;clip-rule:evenodd;fill:#009944;stroke:#009944;stroke-width:0.2835;stroke-miterlimit:3.8637;" d="
				M90.836,143.015c-0.043-0.168-0.094-0.337-0.16-0.499c-1.002,0-2.144-0.112-3.13,0c-1.825,0.209-7.344,1.435-8.813,2.492
				c-0.757,0.545-1.657,1.442-2.292,2.134c-0.188,0.204-0.283,0.566-0.459,0.797c1.027,0.285,2.439,0.736,3.489,0.797
				c2.938,0.173,5.92-0.585,8.373-2.233C88.442,146.104,90.341,143.629,90.836,143.015z"/>
			
				<path style="fill-rule:evenodd;clip-rule:evenodd;fill:#009944;stroke:#009944;stroke-width:0.2835;stroke-miterlimit:3.8637;" d="
				M211.418,145.507v-0.458c-1.518-0.971-3.198-2.055-4.885-2.691c-2.745-1.037-6.92-1.609-9.869-1.336
				c-1.006,0.093-1.982,0.478-2.931,0.797c-0.048,0.063-0.1,0.157-0.1,0.239c0.167,0.337,0.493,0.99,0.737,1.256
				c1.144,1.244,3.444,2.876,5.045,3.529c0.861,0.352,1.888,0.503,2.791,0.745c0.204,0.054,1.935,0.512,1.993,0.512
				c0.471,0,4.331-0.894,4.825-1.097C209.824,146.673,210.729,146.037,211.418,145.507z"/>
			
				<path style="fill-rule:evenodd;clip-rule:evenodd;fill:#009944;stroke:#009944;stroke-width:0.2835;stroke-miterlimit:3.8637;" d="
				M76.042,135.678c-0.045-0.214-0.096-0.429-0.159-0.638c-4.898-1.417-11.226-1.632-15.452,1.694v0.439
				c1.392,0.736,3.452,1.671,4.944,1.954c0.09,0.017,1.296-0.071,1.496-0.08c0.492-0.02,1.008,0.021,1.495-0.02
				c1.927-0.16,5.149-1.542,6.818-2.492C75.243,136.502,75.93,135.791,76.042,135.678z"/>
			
				<path style="fill-rule:evenodd;clip-rule:evenodd;fill:#009944;stroke:#009944;stroke-width:0.2835;stroke-miterlimit:3.8637;" d="
				M225.274,134.043c0.08-0.179,0.15-0.368,0.199-0.558c-4.353-1.477-5.343-2.138-10.128-1.575
				c-0.773,0.091-1.754,0.091-2.492,0.279c-1.396,0.356-2.788,1.164-4.188,1.596v0.498c2.838,2,6.662,3.591,10.169,3.091
				c0.528-0.076,1.14-0.355,1.654-0.519c0.493-0.156,1.19-0.245,1.635-0.479C223.192,135.815,224.265,134.75,225.274,134.043z"/>
			
				<path style="fill-rule:evenodd;clip-rule:evenodd;fill:#009944;stroke:#009944;stroke-width:0.2835;stroke-miterlimit:3.8637;" d="
				M192.139,131.052v-0.458c-2.719-1.084-7.272-1.513-10.068-0.538c-0.544,0.189-1.127,0.517-1.648,0.771
				c-1.434,0.697-3.297,2.459-3.297,2.459c-0.349,0.501-0.504,1.101-0.837,1.595c0.937,0.288,2.235,0.811,3.19,0.897
				c0.549,0.05,1.198-0.03,1.754-0.053c2.773-0.116,3.572-0.331,6.141-1.31c0.418-0.159,0.999-0.308,1.376-0.531
				C189.901,133.198,191.104,131.938,192.139,131.052z"/>
			
				<path style="fill-rule:evenodd;clip-rule:evenodd;fill:#009944;stroke:#009944;stroke-width:0.2835;stroke-miterlimit:3.8637;" d="
				M110.215,133.983v-0.339c-2.317-1.332-5.34-3.066-7.975-3.449c-0.648-0.095-1.429-0.039-2.094-0.066
				c-0.544-0.023-1.2-0.126-1.734-0.073c-1.187,0.116-2.429,0.66-3.549,1.037c0.164,0.459,0.434,1.024,0.797,1.356
				c1.539,1.402,5.106,2.608,7.238,2.691c1.004,0.039,2.116-0.13,3.13-0.18c0.575-0.027,1.299,0.03,1.854-0.08
				C108.591,134.741,109.551,134.29,110.215,133.983z"/>
			
				<path style="fill-rule:evenodd;clip-rule:evenodd;fill:#009944;stroke:#009944;stroke-width:0.2835;stroke-miterlimit:3.8637;" d="
				M204.4,129.657c1.198-0.525,1.996-1.892,2.631-2.971c0.669-1.134,1.464-2.52,1.895-3.749c0.686-1.956,0.313-6.045-0.06-8.075
				c-0.143,0.045-0.291,0.08-0.438,0.1c-2.249,2.291-4.375,5.229-4.825,8.514c-0.088,0.641,0,1.431,0,2.086
				C203.603,127.002,203.71,128.352,204.4,129.657z"/>
			
				<path style="fill-rule:evenodd;clip-rule:evenodd;fill:#009944;stroke:#009944;stroke-width:0.2835;stroke-miterlimit:3.8637;" d="
				M62.584,125.669c-0.726-1.154-1.017-1.022-2.173-1.628c-3.114-1.632-4.349-1.602-7.995-1.602c-3.09,0-4.677,0.029-7.517,1.196
				c0.031,0.181,0.078,0.364,0.14,0.538c1.611,1.299,3.574,3.01,5.543,3.729c0.12,0.044,4.859,0.897,4.984,0.897
				c0.095,0,2.527-0.367,2.632-0.399c0.594-0.18,1.206-0.545,1.787-0.784C60.769,127.294,62.317,126.534,62.584,125.669z"/>
			
				<path style="fill-rule:evenodd;clip-rule:evenodd;fill:#009944;stroke:#009944;stroke-width:0.2835;stroke-miterlimit:3.8637;" d="
				M124.81,127.902c0.047-0.063,0.1-0.157,0.1-0.239c-0.774-1.872-2.103-4.066-3.589-5.423c-0.665-0.607-1.568-1.124-2.307-1.655
				c-0.453-0.327-1.123-0.935-1.621-1.137c-0.426-0.172-0.964-0.226-1.416-0.358c-0.215-0.063-0.389-0.241-0.578-0.299
				c-1.377-0.421-3.103-0.493-4.525-0.598c0.195,1.53,0.372,3.047,1.236,4.386c0.61,0.946,2.883,2.918,3.848,3.489
				c0.607,0.36,1.522,0.572,2.193,0.837c0.387,0.153,0.879,0.435,1.275,0.519c0.533,0.111,1.096,0.141,1.635,0.239
				c0.279,0.051,0.698,0.324,0.918,0.339C122.884,128.063,123.894,127.929,124.81,127.902z"/>
			
				<path style="fill-rule:evenodd;clip-rule:evenodd;fill:#009944;stroke:#009944;stroke-width:0.2835;stroke-miterlimit:3.8637;" d="
				M79.83,127.523c0.041-1.598,0.021-3.081-0.159-4.666c-0.063-0.545-0.02-1.189-0.14-1.715c-0.206-0.9-2.68-4.751-3.15-5.542
				l-1.137-0.698c-1.042,2.197-0.647,4.259-0.226,6.54c0.113,0.609,0.16,1.423,0.365,1.994c0.412,1.145,1.334,2.117,2.187,2.931
				C78.205,126.972,78.924,127.523,79.83,127.523z"/>
			
				<path style="fill-rule:evenodd;clip-rule:evenodd;fill:#009944;stroke:#009944;stroke-width:0.2835;stroke-miterlimit:3.8637;" d="
				M161.036,126.825c1.175-0.078,3.814-0.043,4.784-0.259c1.308-0.291,3.964-1.688,4.945-2.592c1.11-1.024,2.699-3.497,3.289-4.885
				c0.017-0.039,0.092-0.924,0.1-1.037c-1.658,0.176-3.544,0.642-5.084,1.236c-0.232,0.09-4.451,2.511-4.686,2.691
				c-0.898,0.691-2.045,1.739-2.791,2.592c-0.446,0.511-0.846,1.358-1.196,1.954C160.62,126.584,160.841,126.707,161.036,126.825z"
				/>
			
				<path style="fill-rule:evenodd;clip-rule:evenodd;fill:#009944;stroke:#009944;stroke-width:0.2835;stroke-miterlimit:3.8637;" d="
				M239.171,119.688c0.043-0.163,0.077-0.331,0.1-0.498c-1.422-0.29-2.906-0.79-4.347-0.938c-4.396-0.448-9.163,0.906-12.8,3.33
				c-0.04,0.144-0.053,0.31-0.04,0.458c2.132,0.919,4.631,1.969,6.879,2.492c0.163,0.038,1.629-0.233,1.854-0.279
				c0.808-0.165,1.687-0.286,2.472-0.518C235.398,123.11,237.729,121.241,239.171,119.688z"/>
			
				<path style="fill-rule:evenodd;clip-rule:evenodd;fill:#009944;stroke:#009944;stroke-width:0.2835;stroke-miterlimit:3.8637;" d="
				M98.313,122.14c-0.039-0.055-0.328-0.48-0.359-0.499c-1.962-1.185-4.052-2.527-6.181-3.39c-0.406-0.165-0.943-0.205-1.375-0.306
				c-3.086-0.72-4.674-0.74-7.776-0.851c-0.09,0.076-0.192,0.148-0.299,0.199c0.533,1.138,2.632,4.247,2.632,4.247
				c1.417,0.601,3.972,1.771,5.323,1.994c0.579,0.096,5.42-0.257,6.141-0.458C96.979,122.921,97.764,122.408,98.313,122.14z"/>
			
				<path style="fill-rule:evenodd;clip-rule:evenodd;fill:#009944;stroke:#009944;stroke-width:0.2835;stroke-miterlimit:3.8637;" d="
				M201.11,117.096c0.067-0.352,0.193-0.694,0.299-1.037c-1.148,0.068-2.833-0.175-3.888,0.04c-0.634,0.129-1.356,0.505-1.974,0.731
				c-0.84,0.308-1.939,0.55-2.712,0.964c-1.451,0.777-2.792,2.294-3.947,3.449v0.438c0.192,0.079,1.216,0.493,1.355,0.498
				c0.831,0.031,2.166-0.095,2.99-0.239c0.797-0.139,1.731-0.597,2.513-0.857c0.44-0.147,1.132-0.256,1.515-0.499
				C198.296,119.931,200.133,118.013,201.11,117.096z"/>
			
				<path style="fill-rule:evenodd;clip-rule:evenodd;fill:#009944;stroke:#009944;stroke-width:0.2835;stroke-miterlimit:3.8637;" d="
				M66.372,120.844c0.229-0.102,0.452-0.208,0.698-0.259c0.77-1.43,1.403-3.181,1.834-4.726c0.207-0.739,0.15-4.046-0.1-4.785
				c-0.525-1.55-1.498-3.477-2.393-4.845c-0.199-0.306-0.597-0.596-0.837-0.897h-0.459c-0.509,0.955-1.14,1.989-1.535,2.991
				c-0.575,1.459-0.936,5.283-0.658,6.878c0.097,0.554,0.317,1.139,0.466,1.688c0.086,0.32,0.671,2.07,0.83,2.26
				C64.729,119.754,65.739,120.323,66.372,120.844z"/>
			
				<path style="fill-rule:evenodd;clip-rule:evenodd;fill:#009944;stroke:#009944;stroke-width:0.2835;stroke-miterlimit:3.8637;" d="
				M146.242,120.685c2.789-0.93,2.422-0.852,4.646-2.492c1.252-0.924,3.01-2.565,3.528-4.087c0.21-0.615,0.318-1.298,0.492-1.927
				c0.641-2.32,0.783-3.823,1.043-6.147l-0.238-0.1c-0.663,0.402-1.463,0.672-2.094,1.097c-1.889,1.269-3.945,3.256-5.344,5.044
				c-0.031,0.041-1.713,3.319-1.734,3.39C146.131,116.839,146.263,119.272,146.242,120.685z"/>
			
				<path style="fill-rule:evenodd;clip-rule:evenodd;fill:#009944;stroke:#009944;stroke-width:0.2835;stroke-miterlimit:3.8637;" d="
				M136.273,118.851c-0.453-3.559-1.121-8.24-4.387-10.328c-0.957-0.612-2.117-0.878-3.189-1.196
				c-0.196,1.307-0.23,4.21,0.199,5.483c0.158,0.47,1.206,1.914,1.555,2.293C131.376,116.104,135.027,118.851,136.273,118.851z"/>
			
				<path style="fill-rule:evenodd;clip-rule:evenodd;fill:#009944;stroke:#009944;stroke-width:0.2835;stroke-miterlimit:3.8637;" d="
				M216.841,118.851c0.136-0.045,0.271-0.097,0.398-0.16c1.741-2.722,3.119-8.278,2.792-11.504
				c-0.122-1.204-0.588-2.549-0.997-3.688c-0.17-0.083-0.354-0.154-0.538-0.199c-0.475,0.279-0.891,0.764-1.257,1.156
				c-0.665,0.714-1.545,1.667-1.894,2.632c-1.079,2.983-0.705,7.968,0.758,10.807C216.277,118.232,216.615,118.537,216.841,118.851z
				"/>
			
				<path style="fill-rule:evenodd;clip-rule:evenodd;fill:#009944;stroke:#009944;stroke-width:0.2835;stroke-miterlimit:3.8637;" d="
				M183.605,117.555c0.295-0.308,0.828-0.665,1.057-0.997c0.351-0.512,0.6-1.299,0.857-1.874c1.527-3.42,1.467-4.694,1.581-8.348
				c0.012-0.366,0.065-4.348-0.704-4.193c-0.833,1.337-1.636,2.791-2.233,4.247c-0.899,2.192-1.239,6.794-0.997,9.171
				C183.234,116.226,183.488,116.892,183.605,117.555z"/>
			
				<path style="fill-rule:evenodd;clip-rule:evenodd;fill:#009944;stroke:#009944;stroke-width:0.2835;stroke-miterlimit:3.8637;" d="
				M101.741,116.697l0.359-0.239c0.788-2.406,1.036-3.315,1.036-5.882c0-0.169,0.021-1.179,0-1.256
				c-0.553-2.129-2.711-4.949-3.888-6.879l-0.239,0.199c-1.035,2.713-2.114,6.642-0.857,9.471c0.155,0.349,0.607,0.689,0.798,1.057
				c0.085,0.165,0.332,1.063,0.359,1.097C99.988,115.119,100.963,115.918,101.741,116.697z"/>
			
				<path style="fill-rule:evenodd;clip-rule:evenodd;fill:#009944;stroke:#009944;stroke-width:0.2835;stroke-miterlimit:3.8637;" d="
				M49.227,111.214c-2.112-3.8-6.388-5.7-10.613-6.067c-0.604-0.053-1.353-0.188-1.947-0.153c-0.718,0.042-1.464,0.271-2.193,0.339
				c0.721,1.082,1.444,2.16,2.153,3.25c0.343,0.022,0.837,0.798,0.837,0.798c0.641,0.26,1.093,0.775,1.734,1.097
				c1.238,0.619,4.385,1.619,5.742,1.595C46.317,112.047,47.894,111.547,49.227,111.214z"/>
			
				<path style="fill-rule:evenodd;clip-rule:evenodd;fill:#009944;stroke:#009944;stroke-width:0.2835;stroke-miterlimit:3.8637;" d="
				M116.694,111.214c0.079-0.085,0.166-0.169,0.26-0.239c-0.251-0.513-0.425-1.182-0.698-1.654c-0.19-0.33-0.524-0.648-0.758-0.957
				c-1.51-2-3.317-4.685-5.682-5.723c-0.898-0.395-1.923-0.661-2.852-0.997c-0.699-0.252-2.283-0.742-2.971-0.398
				c0.229,0.977,0.759,1.7,1.297,2.552C108.041,108.152,111.924,109.891,116.694,111.214z"/>
			
				<path style="fill-rule:evenodd;clip-rule:evenodd;fill:#009944;stroke:#009944;stroke-width:0.2835;stroke-miterlimit:3.8637;" d="
				M167.177,111.074c2.935-0.358,5.035-0.759,7.655-2.193c0.429-0.234,0.98-0.458,1.356-0.757c0.51-0.407,0.964-1.019,1.415-1.496
				c1.91-2.017,2.63-3.254,3.011-6.021c-1.041,0.234-2.166,0.282-3.189,0.538c-2.383,0.596-3.519,1.544-5.43,2.997
				c-0.565,0.43-1.294,0.895-1.788,1.389c-1.365,1.366-2.498,3.313-3.13,5.144L167.177,111.074z"/>
			
				<path style="fill-rule:evenodd;clip-rule:evenodd;fill:#009944;stroke:#009944;stroke-width:0.2835;stroke-miterlimit:3.8637;" d="
				M54.569,109.38c0.245-0.19,0.704-0.387,0.897-0.598c1.527-1.671,3.183-4.906,3.629-7.178c0.012-0.06,0.008-3.212,0-3.25
				c-0.143-0.618-0.52-1.662-0.798-2.233c-0.148-0.304-0.62-0.641-0.838-0.937h-0.498C53.387,99.108,51.723,104.554,54.569,109.38z"
				/>
			
				<path style="fill-rule:evenodd;clip-rule:evenodd;fill:#009944;stroke:#009944;stroke-width:0.2835;stroke-miterlimit:3.8637;" d="
				M86.748,108.423c-2.225-2.872-6.224-4.743-9.769-5.284c-1.376-0.209-2.93-0.188-4.327-0.239c0.063,0.568,0.199,1.123,0.239,1.695
				c0.199,0.246,1.409,1.869,1.496,1.934c0.989,0.747,5.702,2.545,7.077,2.691c0.529,0.056,1.232-0.102,1.774-0.139
				c0.536-0.038,1.198,0.003,1.715-0.1C85.542,108.863,86.155,108.575,86.748,108.423z"/>
			
				<path style="fill-rule:evenodd;clip-rule:evenodd;fill:#009944;stroke:#009944;stroke-width:0.2835;stroke-miterlimit:3.8637;" d="
				M248.541,106.229c0.112-0.583,0.749-0.928,1.097-1.336c0.378-0.441,0.728-1.183,1.037-1.694
				c-0.111-0.415-1.526-0.399-1.848-0.399c-1.096,0-2.359-0.129-3.436,0c-3.423,0.411-7.311,2.3-10.068,4.227l-0.639,0.438
				l-0.598,0.419c-0.051,0.229-0.122,0.463-0.14,0.697c1.021,0.14,2.104,0.454,3.13,0.499c1.811,0.078,4.972-0.018,6.68-0.459
				C245.348,108.21,247.137,107.026,248.541,106.229z"/>
			
				<path style="fill-rule:evenodd;clip-rule:evenodd;fill:#009944;stroke:#009944;stroke-width:0.2835;stroke-miterlimit:3.8637;" d="
				M211.518,102.103c-1.573,0.127-3.352-0.056-4.885,0.199c-0.93,0.155-2.131,0.623-2.971,1.037
				c-2.953,1.454-2.783,1.695-4.805,4.286l-0.299,0.758c1.437,0.324,2.594,0.293,4.047,0.259
				C207.435,108.53,209.334,106.337,211.518,102.103z"/>
			
				<path style="fill-rule:evenodd;clip-rule:evenodd;fill:#009944;stroke:#009944;stroke-width:0.2835;stroke-miterlimit:3.8637;" d="
				M227.468,107.227l0.398-0.1c0.719-1.644,1.468-3.461,1.834-5.224c0.317-1.523,0.406-6.265-0.14-7.776
				c-0.163-0.452-0.4-0.915-0.598-1.355c-0.058-0.13-0.398-1.07-0.658-1.077c-0.82,0.386-1.338,1.361-1.874,2.054
				c-0.841,1.087-1.459,2.759-1.715,4.107c-0.111,0.587,0,1.439,0,2.054c0,0.17-0.02,1.11,0,1.196
				C225.14,102.97,226.523,105.574,227.468,107.227z"/>
			
				<path style="fill-rule:evenodd;clip-rule:evenodd;fill:#009944;stroke:#009944;stroke-width:0.2835;stroke-miterlimit:3.8637;" d="
				M90.776,105.592c2.096-2.201,2.393-4.921,2.392-7.796c0-0.592,0.096-1.362,0-1.934c-0.176-1.057-0.917-2.271-1.235-3.33h-0.399
				c-1.813,2.569-2.691,4.827-2.691,8.002c0,0.168-0.017,1.309,0,1.369C89.114,102.855,90.271,104.623,90.776,105.592z"/>
			
				<path style="fill-rule:evenodd;clip-rule:evenodd;fill:#009944;stroke:#009944;stroke-width:0.2835;stroke-miterlimit:3.8637;" d="
				M194.432,102.401c0.246-0.102,0.494-1.471,0.551-1.694c0.232-0.907,0.488-1.873,0.645-2.792c0.013-0.072,0.013-4.256,0-4.327
				c-0.156-0.892-0.605-1.883-0.877-2.758c-0.608-1.961-0.619-2.508-2.113-3.782h-0.459c-0.604,0.604-0.86,1.397-1.116,2.207
				c-0.92,2.914-0.9,5.836-0.06,8.779l0.339,1.216c0.028,0.05,2.013,2.432,2.134,2.553
				C193.68,102.009,194.17,102.224,194.432,102.401z"/>
			
				<path style="fill-rule:evenodd;clip-rule:evenodd;fill:#009944;stroke:#009944;stroke-width:0.2835;stroke-miterlimit:3.8637;" d="
				M136.771,100.747c-0.498-2.901-0.869-5.05-2.306-7.636c-0.144-0.259-0.252-0.654-0.426-0.877
				c-0.408-0.526-1.778-1.473-2.346-1.828c-0.519-0.324-1.088-0.754-1.642-1.003c-0.175-0.079-2.959-0.668-3.25-0.698
				c-0.084,0.024-0.179,0.074-0.239,0.14c0,0.863-0.131,1.954,0,2.791c0.092,0.583,0.378,1.279,0.585,1.841
				c1.627,4.416,5.128,5.359,9.125,7.271C136.299,100.759,136.701,100.747,136.771,100.747z"/>
			
				<path style="fill-rule:evenodd;clip-rule:evenodd;fill:#009944;stroke:#009944;stroke-width:0.2835;stroke-miterlimit:3.8637;" d="
				M144.408,100.747c2.344-0.392,5.409-2.392,6.818-4.227c1.325-1.726,2.756-5.021,3.13-7.217c-1.278,0.098-1.78,0.332-2.99,0.778
				c-4.081,1.503-5.681,3.874-6.6,8.075C144.681,98.55,144.222,100.343,144.408,100.747z"/>
			
				<path style="fill-rule:evenodd;clip-rule:evenodd;fill:#009944;stroke:#009944;stroke-width:0.2835;stroke-miterlimit:3.8637;" d="
				M45.937,97.916c0.813-2.476,0.997-5.607,0.559-8.174c-0.093-0.542-1.458-3.473-1.655-3.789c-0.387-0.621-1.63-1.752-2.232-2.173
				c-0.828-0.578-1.685-1.406-2.752-1.355c-0.123,0.084-0.24,0.188-0.339,0.299c-0.266,1.612-0.313,4.733,0.14,6.221
				c0.229,0.75,0.65,1.506,0.943,2.24c0.216,0.54,0.445,1.379,0.751,1.848c0.555,0.848,1.471,1.726,2.14,2.512
				c0.489,0.574,0.964,1.26,1.509,1.774C45.246,97.55,45.661,97.692,45.937,97.916z"/>
			
				<path style="fill-rule:evenodd;clip-rule:evenodd;fill:#009944;stroke:#009944;stroke-width:0.2835;stroke-miterlimit:3.8637;" d="
				M237.775,96.62c0.902-0.461,1.569-1.43,2.227-2.193c0.867-1.007,1.895-2.377,2.459-3.589c0.196-0.422,0.265-1.11,0.379-1.575
				c0.204-0.834,0.525-1.765,0.617-2.612c0.227-2.074-0.004-4.381-0.358-6.42h-0.438c-0.412,0.315-1,0.641-1.355,0.997
				c-1.619,1.618-4.383,5.82-4.626,8.174c-0.094,0.905,0.015,4.094,0.14,5.024C236.918,95.165,237.492,95.943,237.775,96.62z"/>
			
				<path style="fill-rule:evenodd;clip-rule:evenodd;fill:#009944;stroke:#009944;stroke-width:0.2835;stroke-miterlimit:3.8637;" d="
				M78.873,95.184c0.029-0.184,0.051-0.372,0.061-0.558c-1.284-2.042-1.041-1.722-3.071-3.37c-3.915-3.178-7.175-2.95-11.882-2.053
				c-0.24,0.196-0.212,0.403-0.2,0.698c0.47,0.577,0.912,1.394,1.436,1.894c1.308,1.25,5.423,3.618,7.277,3.828
				c0.893,0.101,3.694-0.006,4.646-0.1C77.708,95.467,78.292,95.255,78.873,95.184z"/>
			
				<path style="fill-rule:evenodd;clip-rule:evenodd;fill:#009944;stroke:#009944;stroke-width:0.2835;stroke-miterlimit:3.8637;" d="
				M207.371,95.124c1.218-0.048,2.594,0.053,3.787-0.1c3.182-0.406,6.315-2.739,7.902-5.437c0.689-1.171,1.3-1.78,1.429-3.137
				c-4.529,0.485-5.816,0.224-9.782,3.15c-0.283,0.209-1.932,1.449-2.141,1.834c-0.49,0.902-0.781,2.104-1.296,3.091
				C207.34,94.71,207.377,94.928,207.371,95.124z"/>
			
				<path style="fill-rule:evenodd;clip-rule:evenodd;fill:#009944;stroke:#009944;stroke-width:0.2835;stroke-miterlimit:3.8637;" d="
				M111.371,93.629c-0.101-0.227-0.107-0.501-0.259-0.698c-0.286-0.372-2.429-3.247-2.731-3.489
				c-3.997-3.198-6.225-5.257-11.624-5.483c0.124,0.947-0.008,2.087,0.2,2.991c0.146,0.637,1.572,3.095,2.053,3.549
				c0.043,0.041,3.258,1.98,3.39,2.034c0.476,0.194,4.028,1.199,4.486,1.256C108.232,93.957,109.988,93.676,111.371,93.629z"/>
			
				<path style="fill-rule:evenodd;clip-rule:evenodd;fill:#009944;stroke:#009944;stroke-width:0.2835;stroke-miterlimit:3.8637;" d="
				M172.659,93.29c2.086-0.321,4.461-0.453,6.42-1.256c3.595-1.473,7.048-4.85,7.576-8.813c-4.26,0-7.934,1.687-10.866,4.785
				c-1.189,1.257-2.213,2.911-3.289,4.287L172.659,93.29z"/>
			
				<path style="fill-rule:evenodd;clip-rule:evenodd;fill:#009944;stroke:#009944;stroke-width:0.2835;stroke-miterlimit:3.8637;" d="
				M81.824,92.931c0.527-0.116,2.223-2.104,2.532-2.432c0.138-0.147,0.544-1.188,0.69-1.482c1.162-2.323,1.463-4.312,1.463-6.879
				c0-0.453,0.08-1.074,0-1.508c-0.1-0.536-0.42-1.109-0.559-1.655c-0.381,0.369-0.896,0.703-1.236,1.097
				c-0.982,1.139-2.596,3.378-3.189,4.745c-0.432,0.993-0.642,2.555-0.712,3.635c-0.033,0.515-0.153,1.184-0.086,1.688
				c0.093,0.694,0.469,1.492,0.638,2.193C81.7,92.506,81.719,92.579,81.824,92.931z"/>
			
				<path style="fill-rule:evenodd;clip-rule:evenodd;fill:#009944;stroke:#009944;stroke-width:0.2835;stroke-miterlimit:3.8637;" d="
				M166.678,92.632h0.34c0.049-1.57,0.261-3.482,0.06-5.024c-0.509-3.895-2.573-8.944-4.984-12.022
				c-0.354-0.451-1.051-0.948-1.495-1.336c-0.326,0.05-0.68,0.063-0.997,0.14c-0.63,1.763-1.237,3.693-1.157,5.583
				c0.046,1.064,1.747,5.233,2.293,6.181c0.326,0.566,2.619,3.614,3.091,4.047C164.742,91.04,165.766,91.751,166.678,92.632z"/>
			
				<path style="fill-rule:evenodd;clip-rule:evenodd;fill:#009944;stroke:#009944;stroke-width:0.2835;stroke-miterlimit:3.8637;" d="
				M118.688,91.794c0.099-0.051,0.226-0.1,0.339-0.1c0.429-0.719,0.966-1.42,1.355-2.153c1.549-2.912,2.194-7.02,1.695-10.268
				c-0.071-0.464-0.298-0.964-0.399-1.436c-1.571,1.435-2.765,2.822-3.648,4.825c-0.091,0.207-0.42,2.315-0.479,2.691
				c-0.155,0.997-0.319,2.291-0.159,3.29C117.409,88.747,118.545,91.458,118.688,91.794z"/>
			
				<path style="fill-rule:evenodd;clip-rule:evenodd;fill:#009944;stroke:#009944;stroke-width:0.2835;stroke-miterlimit:3.8637;" d="
				M201.549,90.14c0.128-0.086,0.262-0.169,0.398-0.239c0.162-1.133,0.128-2.289,0.14-3.429c0.043-4.223-0.696-7.778-2.771-11.524
				c-0.284-0.515-0.831-1.021-1.196-1.496h-0.458c-1.929,3.514-2.067,5.833-0.978,9.65c0.204,0.713,0.433,1.603,0.778,2.253
				c0.294,0.554,0.809,1.116,1.176,1.635c0.36,0.51,0.697,1.162,1.116,1.615C200.271,89.162,200.975,89.633,201.549,90.14z"/>
			
				<path style="fill-rule:evenodd;clip-rule:evenodd;fill:#009944;stroke:#009944;stroke-width:0.2835;stroke-miterlimit:3.8637;" d="
				M71.496,80.47c-0.152-1.592-0.951-2.824-1.814-4.107c-0.563-0.835-1.112-1.863-1.774-2.611c-1.74-1.971-4.728-4.291-7.376-4.845
				c-0.45-0.094-1.033-0.04-1.496-0.04c-0.033,0.394-0.022,1.151-0.299,1.495c0.267,1.291,0.236,2.346,0.857,3.589
				c1.188,2.374,5.943,5.207,8.273,5.921c0.936,0.287,2.024,0.42,2.991,0.598C71.042,80.504,71.304,80.47,71.496,80.47z"/>
			
				<path style="fill-rule:evenodd;clip-rule:evenodd;fill:#009944;stroke:#009944;stroke-width:0.2835;stroke-miterlimit:3.8637;" d="
				M143.75,80.47c2.646-0.691,5.539-1.974,7.377-4.087c0.099-0.114,2.132-3.567,2.193-3.729c0.205-0.543,0.348-1.123,0.531-1.675
				c0.352-1.055,0.81-2.248,0.904-3.37c-2.256,0.409-3.53,1.155-5.443,2.313c-0.124,0.075-1.108,0.649-1.137,0.678
				c-0.677,0.692-1.641,1.955-2.133,2.791c-0.419,0.712-0.696,1.682-1.023,2.453C144.179,77.825,143.75,78.303,143.75,80.47z"/>
			
				<path style="fill-rule:evenodd;clip-rule:evenodd;fill:#009944;stroke:#009944;stroke-width:0.2835;stroke-miterlimit:3.8637;" d="
				M135.436,79.832c-0.165-0.941-0.185-1.973-0.398-2.892c-0.174-0.745-0.537-1.501-0.777-2.232c-1.334-4.06-3.464-6.056-7.796-6.5
				c-0.12,1.926-0.043,2.712,0.359,4.546c0.082,0.376,0.098,0.888,0.239,1.236c0.775,1.913,3.226,3.297,4.924,4.26
				C133.042,78.848,134.22,79.832,135.436,79.832z"/>
			
				<path style="fill-rule:evenodd;clip-rule:evenodd;fill:#009944;stroke:#009944;stroke-width:0.2835;stroke-miterlimit:3.8637;" d="
				M213.851,79.832c1.803-0.308,3.137-0.512,4.885-1.256c1.323-0.564,4.537-3.404,5.542-4.486c0.68-0.732,1.253-1.892,1.834-2.731
				c0.076-0.11,0.209-0.279,0.26-0.399c0.039-0.093,0.108-0.811,0.14-0.997c-0.082-0.019-0.367-0.075-0.438-0.06
				c-3.038,0.629-6.141,1.175-8.533,3.35c-0.421,0.383-0.822,1.024-1.189,1.476C215.148,76.201,214.252,77.965,213.851,79.832z"/>
			
				<path style="fill-rule:evenodd;clip-rule:evenodd;fill:#009944;stroke:#009944;stroke-width:0.2835;stroke-miterlimit:3.8637;" d="
				M74.985,77.18c0.742-0.379,1.522-0.982,2.393-0.937c0.445-0.407,1.449-1.201,1.755-1.655c0.824-1.226,1.687-3.372,1.734-4.885
				c0.035-1.117-0.148-2.106,0-3.229c-0.082-0.157-0.153-0.328-0.199-0.499c-0.131-0.028-0.266-0.05-0.399-0.06
				c-0.761,0.698-1.696,1.344-2.393,2.094C75.299,70.785,75.34,73.638,74.985,77.18z"/>
			
				<path style="fill-rule:evenodd;clip-rule:evenodd;fill:#009944;stroke:#009944;stroke-width:0.2835;stroke-miterlimit:3.8637;" d="
				M104.593,76.841c0.018-0.061,0.064-0.301,0.04-0.358c-0.981-2.345-3.122-7.047-5.224-8.474v-0.299
				c-3.175-1.839-3.741-2.313-7.477-2.492c0.149,2.843,0.659,4.295,1.974,6.799c0.077,0.147,0.566,1.121,0.618,1.176
				c1.063,1.133,3.594,1.92,5.018,2.499C101.157,76.348,102.833,77.122,104.593,76.841z"/>
			
				<path style="fill-rule:evenodd;clip-rule:evenodd;fill:#009944;stroke:#009944;stroke-width:0.2835;stroke-miterlimit:3.8637;" d="
				M208.028,76.841c0.299-0.156,0.378-1.644,0.405-1.874c0.192-1.614,0.167-5.057-0.306-6.759c-0.249-0.897-0.702-1.816-1.036-2.691
				c-0.203-0.53-0.354-1.136-0.618-1.635c-0.65-1.226-1.62-2.409-2.373-3.589h-0.758c-1.564,2.333-1.994,6.636-1.036,9.271
				c0.146,0.4,0.68,0.743,0.851,1.17c0.364,0.912,0.763,2.207,1.282,3.018C205.258,75.027,206.854,75.939,208.028,76.841z"/>
			
				<path style="fill-rule:evenodd;clip-rule:evenodd;fill:#009944;stroke:#009944;stroke-width:0.2835;stroke-miterlimit:3.8637;" d="
				M177.624,75.983c1.712-0.134,3.442-0.11,5.084-0.737c3.444-1.317,7.775-5.641,7.775-9.57c-0.195-0.175-1.604,0.411-1.794,0.479
				c-1.508,0.534-4.571,1.837-5.882,2.851c-0.687,0.531-3.012,2.813-3.489,3.489c-0.301,0.426-0.533,0.984-0.784,1.449
				C178.203,74.556,177.722,75.277,177.624,75.983z"/>
			
				<path style="fill-rule:evenodd;clip-rule:evenodd;fill:#009944;stroke:#009944;stroke-width:0.2835;stroke-miterlimit:3.8637;" d="
				M112.508,75.685c0.563-0.335,1.295-0.687,1.795-1.097c1.021-0.838,1.707-2.097,2.332-3.229c0.506-0.918,1.218-1.881,1.596-2.852
				c0.803-2.066,0.917-7.064,0.598-9.45c-0.769,0.397-1.657,0.818-2.373,1.296c-1.084,0.723-2.56,2.871-3.05,4.027
				c-0.536,1.264-1.274,5.529-1.296,6.878C112.086,72.672,112.402,74.256,112.508,75.685z"/>
			
				<path style="fill-rule:evenodd;clip-rule:evenodd;fill:#009944;stroke:#009944;stroke-width:0.2835;stroke-miterlimit:3.8637;" d="
				M171.164,70.7h0.498c-0.05-1.472,0.048-3.076-0.1-4.526c-0.077-0.764-0.651-3.036-0.996-3.688
				c-1.338-2.526-4.017-5.647-6.739-6.679l-0.737,0.159c-0.169,1.041-0.436,2.552-0.359,3.589c0.122,1.667,2.152,5.572,3.15,6.819
				c0.479,0.6,1.205,1.235,1.794,1.735C168.787,69.051,170.063,69.772,171.164,70.7z"/>
			
				<path style="fill-rule:evenodd;clip-rule:evenodd;fill:#009944;stroke:#009944;stroke-width:0.2835;stroke-miterlimit:3.8637;" d="
				M68.015,65.518c0.903,0.517,2.238-3.212,2.448-3.187c1.325-2.416,1.499-7.472,0.375-10.063c-0.737-1.7-1.959-2.867-3.116-4.242
				c-0.133,0.041-0.515,0.06-0.659,0.048c-0.676,1.344-1.649,2.874-2.109,4.291c-0.438,1.349-0.756,4.68-0.565,6.132
				c0.146,1.112,1.265,3.979,1.908,4.919C66.794,64.142,68.015,65.518,68.015,65.518z"/>
			
				<path style="fill-rule:evenodd;clip-rule:evenodd;fill:#009944;stroke:#009944;stroke-width:0.2835;stroke-miterlimit:3.8637;" d="
				M214.508,63.044c0.151-0.063,0.334-0.104,0.499-0.1c0.774-1.284,1.901-2.611,2.532-3.948c0.365-0.774,0.553-1.862,0.784-2.698
				c0.172-0.623,0.438-1.259,0.571-1.887c0.175-0.828,0.11-1.858,0.086-2.698c-0.104-3.685-0.768-4.742-2.339-8.009h-0.538
				c-1.701,1.449-3.043,3.604-3.748,5.722c-0.867,2.6-0.122,9.19,1.057,11.724C213.711,61.794,214.16,62.418,214.508,63.044z"/>
			
				<path style="fill-rule:evenodd;clip-rule:evenodd;fill:#009944;stroke:#009944;stroke-width:0.2835;stroke-miterlimit:3.8637;" d="
				M144.408,60.891c1.255-0.386,3.019-0.708,4.167-1.236c0.513-0.236,1.095-0.734,1.568-1.063c0.657-0.458,1.557-0.937,2.12-1.489
				c1.55-1.521,3.008-3.605,3.688-5.683c0.099-0.3,0.237-2.983,0.26-3.489c-4.898,0.771-9.027,4.271-10.906,8.833
				C144.872,57.816,144.623,59.726,144.408,60.891z"/>
			
				<path style="fill-rule:evenodd;clip-rule:evenodd;fill:#009944;stroke:#009944;stroke-width:0.2835;stroke-miterlimit:3.8637;" d="
				M134.938,59.754c-1.111-3.491-1.044-5.204-3.17-8.394c-0.201-0.301-0.763-1.236-0.977-1.436
				c-0.673-0.626-2.748-1.475-3.716-1.668c-1.139-0.228-1.953-0.458-3.104-0.266c-0.977,2.621-0.305,5.166,0.838,7.577
				C127.234,57.137,132.03,59.754,134.938,59.754z"/>
			
				<path style="fill-rule:evenodd;clip-rule:evenodd;fill:#009944;stroke:#009944;stroke-width:0.2835;stroke-miterlimit:3.8637;" d="
				M100.246,59.296c0.099-0.247-0.149-1.022-0.199-1.217c-0.756-2.967-3.885-9.151-6.52-10.746
				c-1.035-0.627-2.593-0.938-3.748-1.236c0.026,1.154-0.172,2.339-0.1,3.489c0.098,1.573,0.813,4.048,1.654,5.423
				c0.466,0.76,3.517,2.626,4.307,2.978c1.083,0.481,2.283,1.09,3.409,1.409l0.199-0.027
				C99.578,59.325,99.915,59.317,100.246,59.296z"/>
			
				<path style="fill-rule:evenodd;clip-rule:evenodd;fill:#009944;stroke:#009944;stroke-width:0.2835;stroke-miterlimit:3.8637;" d="
				M181.971,58.398c0.53-0.122,1.121-0.106,1.635-0.239c1.439-0.373,3.336-1.22,4.585-1.994c0.849-0.525,3.4-2.867,3.948-3.688
				c0.268-0.401,0.449-0.973,0.657-1.415c0.897-1.904,1.276-3.538,1.276-5.623c-1.315,0.291-2.754,0.531-3.928,1.256
				c-2.363,1.459-5.579,5.128-6.979,7.577C183.034,54.503,182.103,57.87,181.971,58.398z"/>
			
				<path style="fill-rule:evenodd;clip-rule:evenodd;fill:#009944;stroke:#009944;stroke-width:0.2835;stroke-miterlimit:3.8637;" d="
				M105.889,57.9c1.396-0.7,2.768-1.917,3.788-3.09c0.497-0.57,0.9-1.564,1.296-2.233c0.234-0.396,0.628-0.886,0.798-1.296
				c0.262-0.634,0.645-3.904,0.638-4.486c-0.01-0.775-0.305-1.701-0.398-2.492c-0.196,0.046-0.398,0.08-0.599,0.1
				c-0.935,0.807-2.243,1.604-3.03,2.532c-0.447,0.527-0.741,1.426-0.983,2.06c-0.323,0.845-0.718,1.724-0.971,2.585
				C105.976,53.117,105.791,56.241,105.889,57.9z"/>
			
				<path style="fill-rule:evenodd;clip-rule:evenodd;fill:#009944;stroke:#009944;stroke-width:0.2835;stroke-miterlimit:3.8637;" d="
				M175.989,56.404h0.299c0.416-1.813,0.375-5.149,0.239-7.018c-0.051-0.693-0.301-1.423-0.419-2.114
				c-0.03-0.18-0.175-1.144-0.22-1.236c-0.419-0.87-1.234-2.239-1.834-2.991c-0.324-0.406-0.802-0.718-1.136-1.136
				c-0.125-0.156-0.233-0.433-0.359-0.558c-0.252-0.252-0.7-0.477-0.997-0.698c-0.051,0.024-0.271,0.123-0.299,0.16
				c-0.796,1.023-1.32,1.981-1.668,3.243c-0.674,2.44-0.332,2.787,0.645,5.144C171.712,52.75,173.104,54.054,175.989,56.404z"/>
			
				<path style="fill-rule:evenodd;clip-rule:evenodd;fill:#009944;stroke:#009944;stroke-width:0.2835;stroke-miterlimit:3.8637;" d="
				M100.904,44.94c0.264-0.288,0.689-0.625,0.897-0.938c0.549-0.824,1.765-4.065,1.993-4.885c0.201-0.721,0.051-1.934,0.08-2.711
				c0.019-0.493,0.129-1.16,0.06-1.635c-0.096-0.657-1.677-4.09-2.133-4.666c-0.71-0.893-1.763-1.484-2.492-2.353h-0.499
				c-0.616,1.162-1.651,2.523-2.054,3.748c-0.749,2.285-0.845,6.316,0.2,8.554l2.192,3.29
				C99.646,43.911,100.34,44.432,100.904,44.94z"/>
			
				<path style="fill-rule:evenodd;clip-rule:evenodd;fill:#009944;stroke:#009944;stroke-width:0.2835;stroke-miterlimit:3.8637;" d="
				M143.61,42.607c0.475-0.054,1.043-0.017,1.495-0.1c2.572-0.474,4.502-1.768,6.52-3.35c1.367-1.072,2.878-3.62,3.489-5.283
				c0.366-0.997,0.429-2.682,0.438-3.729c-1.028,0.342-2.246,0.471-3.229,0.897c-2.682,1.164-5.032,2.861-6.52,5.423
				c-0.424,0.729-0.694,1.666-1.017,2.452C144.313,40.073,143.611,41.329,143.61,42.607z"/>
			
				<path style="fill-rule:evenodd;clip-rule:evenodd;fill:#009944;stroke:#009944;stroke-width:0.2835;stroke-miterlimit:3.8637;" d="
				M181.611,42.309c1.057-0.262,1.882-1.634,2.399-2.532c0.478-0.83,2.2-4.026,2.346-4.944c0.359-2.276-0.381-5.447-0.997-7.676
				c-0.939-0.81-0.393-1.238-1.355-2.493c-0.022-0.217-0.04-0.419-0.04-0.638c-1.005,0.243-2.265,2.207-2.738,3.117
				c-0.744,1.431-1.778,3.051-2.047,4.659C178.573,35.438,180.334,39.007,181.611,42.309z"/>
			
				<path style="fill-rule:evenodd;clip-rule:evenodd;fill:#009944;stroke:#009944;stroke-width:0.2835;stroke-miterlimit:3.8637;" d="
				M135.436,41.112c-0.097-0.729-0.086-1.66-0.259-2.353c-0.195-0.78-2.175-5.592-2.731-6.081c-0.87-0.765-4.36-2.879-5.482-3.13
				c-0.669-0.15-1.466-0.149-2.153-0.2c-0.012,0.884-0.205,1.927-0.1,2.792c0.049,0.405,0.257,0.855,0.358,1.256
				c0.176,0.69,0.573,2.272,1.037,2.831c1.146,1.381,2.702,2.429,4.246,3.29c1.104,0.615,2.693,1.313,3.928,1.595
				C134.558,41.176,135.126,41.112,135.436,41.112z"/>
			
				<path style="fill-rule:evenodd;clip-rule:evenodd;fill:#009944;stroke:#009944;stroke-width:0.2835;stroke-miterlimit:3.8637;" d="
				M139.922,31.144c1.482-1.123,2.756-5.412,3.09-7.277c0.15-0.838-0.027-4.012-0.299-4.825c-0.639-1.916-1.354-2.672-2.393-4.247
				h-0.458c-1.207,1.162-2.475,2.616-3.03,4.247c-0.778,2.281-0.236,6.52,0.697,8.713C138,28.857,139.189,30.222,139.922,31.144z"/>
		</g>
	</g>
</svg>
